<?xml version="1.0" encoding="utf-8"?>
<!-- Generator: Adobe Illustrator 25.2.3, SVG Export Plug-In . SVG Version: 6.00 Build 0)  -->
<svg version="1.1" id="Layer_1" xmlns="http://www.w3.org/2000/svg" xmlns:xlink="http://www.w3.org/1999/xlink" x="0px" y="0px"
	 viewBox="0 0 512 512" style="enable-background:new 0 0 512 512;" xml:space="preserve">
<style type="text/css">
	.st0{fill:#FFFFFF;}
</style>
<g id="user_account_people_man">
	<path class="st0" d="M379.8,258.9c-6.2-6.3-16.3-6.4-22.6-0.2c-6.3,6.2-6.4,16.3-0.2,22.6c0.1,0.1,0.2,0.2,0.4,0.4
		c27.4,27,42.8,63.9,42.7,102.4c0,19.6-56.1,48-144,48s-144-28.4-144-48c-0.1-38.2,15.1-74.9,42.2-101.8c6.3-6.2,6.5-16.3,0.3-22.6
		c-6.2-6.3-16.3-6.5-22.6-0.3c-0.1,0.1-0.2,0.2-0.3,0.3C98.4,292.5,79.9,337.3,80,384c0,52,90.7,80,176,80s176-28,176-80
		C432.1,337,413.3,291.9,379.8,258.9z"/>
	<path class="st0" d="M256,272c61.9,0,112-50.1,112-112S317.9,48,256,48S144,98.1,144,160C144.1,221.8,194.2,271.9,256,272z M256,80
		c44.2,0,80,35.8,80,80s-35.8,80-80,80s-80-35.8-80-80C176.1,115.8,211.8,80.1,256,80z"/>
</g>
</svg>
