<?xml version="1.0" encoding="utf-8"?>
<!-- Generator: Adobe Illustrator 25.2.3, SVG Export Plug-In . SVG Version: 6.00 Build 0)  -->
<svg version="1.1" id="Capa_1" xmlns="http://www.w3.org/2000/svg" xmlns:xlink="http://www.w3.org/1999/xlink" x="0px" y="0px"
	 viewBox="0 0 512 512" style="enable-background:new 0 0 512 512;" xml:space="preserve">
<style type="text/css">
	.st0{fill:#2F3640;}
</style>
<g>
	<g>
		<path class="st0" d="M481.3,81.9H30.7C13.8,81.9,0,95.7,0,112.6v286.7c0,16.9,13.8,30.7,30.7,30.7h450.6
			c16.9,0,30.7-13.8,30.7-30.7V112.6C512,95.7,498.2,81.9,481.3,81.9z M491.5,399.4c0,5.6-4.6,10.2-10.2,10.2H30.7
			c-5.7,0-10.2-4.6-10.2-10.2V112.6c0-5.7,4.6-10.2,10.2-10.2h450.6c5.6,0,10.2,4.6,10.2,10.2V399.4z"/>
	</g>
</g>
<g>
	<g>
		<rect x="10.2" y="174.1" class="st0" width="491.5" height="41"/>
	</g>
</g>
<g>
	<g>
		<path class="st0" d="M501.8,163.8H10.2c-5.7,0-10.2,4.6-10.2,10.2v41c0,5.7,4.6,10.2,10.2,10.2h491.5c5.7,0,10.2-4.6,10.2-10.2
			v-41C512,168.4,507.4,163.8,501.8,163.8z M491.5,204.8h-471v-20.5h471L491.5,204.8L491.5,204.8z"/>
	</g>
</g>
<g>
	<g>
		<path class="st0" d="M276.5,286.7H92.2c-5.7,0-10.2,4.6-10.2,10.2c0,5.7,4.6,10.2,10.2,10.2h184.3c5.7,0,10.2-4.6,10.2-10.2
			C286.7,291.3,282.1,286.7,276.5,286.7z"/>
	</g>
</g>
<g>
	<g>
		<path class="st0" d="M194.6,327.7H92.2c-5.7,0-10.2,4.6-10.2,10.2s4.6,10.2,10.2,10.2h102.4c5.7,0,10.2-4.6,10.2-10.2
			S200.2,327.7,194.6,327.7z"/>
	</g>
</g>
</svg>
