<?xml version="1.0" encoding="utf-8"?>
<!-- Generator: Adobe Illustrator 25.2.3, SVG Export Plug-In . SVG Version: 6.00 Build 0)  -->
<svg version="1.1" id="Capa_1" xmlns="http://www.w3.org/2000/svg" xmlns:xlink="http://www.w3.org/1999/xlink" x="0px" y="0px"
	 viewBox="0 0 836.1 836.1" style="enable-background:new 0 0 836.1 836.1;" xml:space="preserve">
<style type="text/css">
	.st0{fill:#2F3640;}
</style>
<g>
	<path class="st0" d="M29.9,366.5c13.3,31.4,32.3,59.6,56.5,83.8c24.2,24.2,52.4,43.2,83.8,56.5c32.6,13.7,67.1,20.7,102.7,20.7
		c44.5,0,88.2-11.2,126.9-32.5L567,662.3l-61.9,61.9c-7.4,7.3-9.6,18.4-5.1,28.9c1,2.2,2.4,4.2,4.1,5.9l69.7,69.7
		c7.3,7.4,18.4,9.6,28.9,5.1c2.2-1,4.2-2.4,5.9-4.1l62.9-62.9l43.7,43.7c7.3,7.4,18.4,9.6,28.9,5.1c2.2-1,4.2-2.4,5.9-4.1l70.7-70.7
		c1.7-1.7,3.2-3.7,4.1-5.9c4.5-10.5,2.2-21.6-5.1-28.9L504,390.6c21.3-38.8,32.5-82.4,32.5-126.9c0-35.6-6.9-70.2-20.7-102.7
		c-13.3-31.4-32.3-59.6-56.5-83.8S406.9,34,375.5,20.7C342.9,7,308.4,0,272.8,0s-70.2,6.9-102.7,20.7C138.7,34,110.5,53,86.3,77.2
		S43.1,129.6,29.8,161C16.1,193.6,9.1,228.1,9.1,263.7S16.1,333.8,29.9,366.5z M142.2,263.7c0-34.9,13.6-67.8,38.3-92.5
		s57.6-38.3,92.5-38.3c34.9,0,67.8,13.6,92.5,38.3s38.3,57.5,38.3,92.5c0,34.9-13.7,67.8-38.4,92.5c-24.7,24.7-57.6,38.3-92.5,38.3
		c-34.9,0-67.8-13.6-92.5-38.3C155.6,331.5,142,298.6,142.2,263.7z"/>
</g>
</svg>
