<?xml version="1.0" encoding="utf-8"?>
<!-- Generator: Adobe Illustrator 25.2.3, SVG Export Plug-In . SVG Version: 6.00 Build 0)  -->
<svg version="1.1" id="Layer_1" xmlns="http://www.w3.org/2000/svg" xmlns:xlink="http://www.w3.org/1999/xlink" x="0px" y="0px"
	 viewBox="0 0 512 512" style="enable-background:new 0 0 512 512;" xml:space="preserve">
<style type="text/css">
	.st0{fill:#2F3640;}
</style>
<path class="st0" d="M426.7,421.3H85.3C53,421.2,26.8,395,26.7,362.7V149.3C26.8,117,53,90.8,85.3,90.7h341.3
	c32.4,0.1,58.5,26.3,58.7,58.7v213.3C485.2,395,459,421.2,426.7,421.3z M85.3,122.7c-14.7,0-26.7,11.9-26.7,26.7v213.3
	c0,14.7,11.9,26.7,26.7,26.7h341.3c14.7,0,26.7-11.9,26.7-26.7V149.3c0-14.7-11.9-26.7-26.7-26.7H85.3z"/>
<path class="st0" d="M256,284.8c-12.4,0-24.5-3.3-35.2-9.6L34.6,164.5c-7.2-4.5-9.7-13.8-5.8-21.3c4.4-7.3,13.9-9.8,21.3-5.5
	l186.5,110.5c11.5,7,26,7,37.5,0l186.5-110.5c7.4-4.2,16.9-1.8,21.3,5.5c4,7.5,1.5,16.8-5.8,21.3l-185,110.7
	C280.5,281.5,268.4,284.8,256,284.8z"/>
</svg>
