<?xml version="1.0" encoding="utf-8"?>
<!-- Generator: Adobe Illustrator 25.2.3, SVG Export Plug-In . SVG Version: 6.00 Build 0)  -->
<svg version="1.1" id="Layer_1" xmlns="http://www.w3.org/2000/svg" xmlns:xlink="http://www.w3.org/1999/xlink" x="0px" y="0px"
	 viewBox="0 0 449 448.9" style="enable-background:new 0 0 449 448.9;" xml:space="preserve">
<style type="text/css">
	.st0{fill:#2F3640;}
</style>
<g id="Gift-Icon_1_">
	<g id="Icons_1_" transform="translate(1.998 2.005)">
		<path id="Path_299_1_" class="st0" d="M447,130.6c0.6-16.3-12.2-30-28.5-30.6c-0.7,0-1.4,0-2.1,0h-47.9c1.8-3.2,3.2-6.6,4.1-10.2
			c5.2-18.1,3-37.6-6.1-54.1c-9-17.3-25-29.9-43.9-34.7c-38-11.3-78,10.1-89.8,47.9l-10.2,34.7L212.3,49
			C200.5,11.1,160.5-10.2,122.5,1c-18.9,4.8-34.9,17.4-43.9,34.7c-9.1,16.5-11.3,35.9-6.1,54.1c0.9,3.6,2.3,7,4.1,10.2H28.6
			c-16.3-0.6-30,12.2-30.6,28.5c0,0.7,0,1.4,0,2.1v112.2h20.4v173.4c-0.6,16.3,12.2,30,28.6,30.6c0.7,0,1.4,0,2,0H396
			c16.3,0.6,30-12.2,30.6-28.5c0-0.7,0-1.4,0-2.1V242.8H447V130.6z M406.1,202H293.9v-61.2h112.2V202z M191.9,202v-61.2h61.2V202
			L191.9,202z M253.1,242.8v163.2h-61.2V242.8L253.1,242.8z M311.3,39.8c8.2,2.4,15.2,7.9,19.4,15.3c4,6.8,5.1,14.9,3.1,22.4
			c-4.1,13.5-16.6,22.6-30.6,22.4h-42.9l11.2-38.8C277.3,44.9,294.5,35.7,311.3,39.8L311.3,39.8z M111.3,77.5
			c-2-7.6-0.9-15.7,3.1-22.4c4.2-7.4,11.2-12.9,19.4-15.3c16.8-4.1,34,5.1,39.8,21.4l11.2,38.8h-42.9
			C127.8,100.1,115.4,91,111.3,77.5z M38.8,140.8H151V202H38.8L38.8,140.8z M59.2,242.8h91.9v163.2H59.2L59.2,242.8z M385.7,406.1
			h-91.8V242.8h91.8L385.7,406.1z"/>
	</g>
</g>
</svg>
