<?xml version="1.0" encoding="utf-8"?>
<!-- Generator: Adobe Illustrator 25.2.3, SVG Export Plug-In . SVG Version: 6.00 Build 0)  -->
<svg version="1.1" id="Layer_1" xmlns="http://www.w3.org/2000/svg" xmlns:xlink="http://www.w3.org/1999/xlink" x="0px" y="0px"
	 viewBox="0 0 530.9 531.7" style="enable-background:new 0 0 530.9 531.7;" xml:space="preserve">
<style type="text/css">
	.st0{fill:#F99D1F;}
	.st1{fill:#FB7E7E;}
	.st2{fill:#EDD858;}
	.st3{fill:#53306C;}
	.st4{fill:#2CAE6F;}
	.st5{fill:#F5EF7A;}
	.st6{fill:none;stroke:#F5EF7A;stroke-width:16;stroke-miterlimit:10;}
	.st7{opacity:0.8;}
	.st8{fill:#FFFFFF;}
	.st9{opacity:0.85;}
	.st10{opacity:0.3;fill:#2CAE6F;enable-background:new    ;}
	.st11{opacity:0.4;fill:#2CAE6F;enable-background:new    ;}
	.st12{opacity:0.3;fill:#FFFFFF;enable-background:new    ;}
	.st13{opacity:0.3;fill:#EDD858;enable-background:new    ;}
	.st14{opacity:0.4;fill:#FFFFFF;enable-background:new    ;}
	.st15{opacity:0.7;}
	.st16{opacity:0.3;fill:#53306C;enable-background:new    ;}
	.st17{opacity:0.3;fill:#F5EF7A;enable-background:new    ;}
</style>
<g>
	<g id="XMLID_376_">
		<g id="XMLID_1364_">
			<g id="XMLID_1369_">
				<path id="XMLID_1370_" class="st3" d="M318.9,249.1c-0.1-0.6-0.1-1.3-0.3-1.9l-0.1-1l-0.2-1c-1.2-5.9-3.6-11.6-7.2-16.8
					c-3.6-5.1-8.2-9.5-13.6-12.9c-5.4-3.4-11.5-5.8-18.1-7.1c-6.5-1.2-13.4-1.2-20.3,0.2c-4.9,0.8-9.7,2.7-14.3,5.3
					c-2.3,1.3-4.5,2.8-6.6,4.5s-4,3.6-5.8,5.5c-1.8,2-3.4,4.2-4.8,6.4c-1.4,2.2-2.7,4.5-3.7,7c-2.1,4.8-3.4,9.8-4,14.7
					c1.6-11.7,7.4-22.8,16.2-30.8c4.4-4,9.4-7.3,14.9-9.5c5.5-2.3,11.2-3.6,17.1-3.8c11.8-0.5,23.3,3.4,32,10.4
					c4.4,3.5,8.1,7.7,10.8,12.4s4.7,9.7,5.5,14.8c-1.2-1.8-2.5-3.7-3.9-5.7c-1.4-1.9-2.8-4.1-4.4-6.4c-3.5-5.6-8.2-10.5-13.8-14
					c-5.6-3.6-11.9-5.8-18.5-6.6c0.1-0.6,0.2-1.8,0.3-2.3c-9.9-0.5-19.6,1.6-28.1,6.2c-8.4,4.5-15.5,11.6-20.1,20.1
					c-2.3,4.2-3.9,8.9-4.8,13.6c-0.8,4.8-1,9.8-0.3,14.7c0.6,4.9,2.1,9.6,4.4,14c1.2,2.2,2.5,4.3,4,6.3c1.5,1.9,3.2,3.8,5,5.5
					c-0.4-0.6-0.3-0.8-0.1-1c0.2-0.1,0.5,0,0.8-0.1c0.1,0.1,0.1,0.1,0.2,0.2c-0.1-0.1-0.1-0.1-0.2-0.2c0.5-0.1,0.5-0.3-1-2.1
					c1.6,1.8,1.5,2.1,1,2.1c-6.6-6.9-10.8-15.8-12.1-24.9c-0.3-2.3-0.5-4.6-0.5-6.9c0-2.3,0.3-4.6,0.6-6.9c0.4-2.3,0.9-4.5,1.6-6.7
					c0.7-2.2,1.6-4.4,2.6-6.4c4.1-8.2,10.7-15.2,18.7-19.7s17.3-6.5,26.6-5.6l-0.6-0.1h-0.6l-1.4-0.1c-0.9,0-1.8,0-2.7,0
					c-0.9,0.1-1.8,0.1-2.7,0.2c-0.9,0.1-1.8,0.2-2.7,0.3c-3.6,0.6-7,1.5-10.3,2.9s-6.4,3.2-9.4,5.3c-2.9,2.1-5.5,4.6-7.9,7.3
					c-2.3,2.7-4.3,5.8-5.9,9c-0.8,1.6-1.5,3.2-2.1,4.9s-1.1,3.4-1.5,5.1c-0.8,3.5-1.2,7.1-1.2,10.7s0.5,7.1,1.3,10.7
					c0.8,3.5,2.1,6.9,3.7,10.1c1.6,3.2,3.6,6.2,6,8.9c2.3,2.7,5,5.2,7.9,7.3s6,3.9,9.4,5.3c6.6,2.7,14,4,21.2,3.4
					c7.3-0.5,14.4-2.9,20.7-6.7c1-0.6,2.7-1.7,4.1-2.9c1.5-1.2,2.9-2.4,3.8-3.3c8.5-5.8,14.3-15.6,15.7-26c0.6,0.8,1.6,0.7,2.5,0.6
					c1-0.2,2-0.5,2.8-0.2s1.4,1.2,1.4,3.6c0,0.6-0.1,1.3-0.2,2.1c-0.1,0.4-0.1,0.8-0.2,1.2c-0.1,0.5-0.2,0.9-0.3,1.4
					c-0.5,1.9-1.3,4.3-2.7,7.1c0.5,0.3,1.6,0.7,2.1,0.9c3.2-5.5,5.5-10.7,7.3-14.7c0.9-2,1.7-3.8,2.4-5.3s1.4-2.5,2.1-3.2
					c0.6-0.6,1.4-0.8,2-0.6c0.3,0.1,0.6,0.3,1,0.7c0.3,0.4,0.6,0.9,0.8,1.6c1,2.7,1.8,7.9,0.5,15.7c-1.6,8.7-5.4,17.9-11.4,26.1
					c-6,8.2-14.3,15.5-24,20.5c-4.9,2.5-10.1,4.5-15.5,5.9s-11,2.1-16.6,2.2c-5.6,0.1-11.2-0.3-16.6-1.4c-5.5-1.1-10.8-2.8-15.8-5
					c-14.6-6.5-27-17.9-34.4-32.3c-3.8-7.1-6.2-14.9-7.3-22.9c-0.5-4-0.6-8-0.5-12c0.1-2,0.3-4,0.5-6l0.5-3c0.1-1,0.4-1.9,0.6-2.9
					c2.4-10.7,7.3-21,14.2-29.8c3.5-4.4,7.5-8.4,11.8-11.9c4.4-3.5,9.2-6.4,14.3-8.8c5.1-2.3,10.5-4.1,16-5.2
					c5.5-1.1,11-1.4,16.5-1.2c5.5,0.3,10.9,1.2,16,2.7c5.1,1.6,10.1,3.8,14.5,6.4c3.3,1.9,7.1,4.3,10.8,7.2
					c3.8,2.9,7.4,6.3,10.5,9.9s5.6,7.4,7.3,10.8c0.8,1.7,1.6,3.2,2,4.7c0.5,1.4,0.8,2.6,1,3.6c1.1,5.4-0.2,5.9-1.7,5.6
					c-3.4-11.2-9.9-21.5-18.6-29.4c-8.6-7.9-19.5-13.3-31-15.7c-3.5-0.8-7.1-1.2-10.7-1.4c-3.6-0.2-7.2-0.1-10.8,0.3
					c-3.6,0.4-7.1,1.1-10.7,2.1c-3.5,1-6.9,2.3-10.2,3.8c-6.6,3.1-12.7,7.3-18.1,12.3c-5.3,5.1-9.9,11-13.4,17.6
					c7.1-12.7,18-23.2,31.2-29.4c3.2-1.6,6.7-2.9,10.1-3.9c3.5-1,7.1-1.8,10.7-2.2c3.6-0.5,7.3-0.6,10.8-0.5
					c3.6,0.1,7.3,0.5,10.8,1.3c11.4,2.5,22,8,30.5,15.8c8.4,7.9,14.7,17.9,17.9,28.8c-1.4-0.5-2.8-0.7-3.5,0.9c0,0,0.1,0.4,0.3,1
					c0.2,0.6,0.5,1.6,0.7,2.5c0.3,1,0.5,2.1,0.7,3.2s0.4,2.1,0.5,2.9c-0.1,1.7-0.3,3.1-0.6,4.3c-0.3,1.2-0.6,2.1-1,2.8
					c-0.8,1.4-1.7,2-2.5,2s-1.8-0.6-2.7-1.4c-0.5-0.5-0.8-1-1.3-1.6s-0.8-1.2-1.3-1.9C320.7,252.1,319.8,250.6,318.9,249.1z"/>
			</g>
		</g>
	</g>
	<g id="XMLID_1353_">
		<g id="XMLID_1780_">
			<g id="XMLID_1784_">
				<g id="XMLID_1794_">
					<path id="XMLID_1823_" class="st5" d="M373,268.7c0.1-0.3,0.1-0.6,0.1-1c0-0.3,0.1-0.6,0.1-0.8c0.1-0.5,0.1-0.8,0.1-0.8
						c-0.1,0-0.2,0-0.3,0C373,267,373,267.9,373,268.7z"/>
					<path id="XMLID_1822_" class="st5" d="M375.6,271.7c0.1-0.3,0.1-0.6,0.1-0.8c-0.1,0.1-0.1,0.1-0.2,0.1
						C375.6,271.3,375.6,271.4,375.6,271.7z"/>
					<path id="XMLID_1821_" class="st5" d="M373,266.1c-1,0.1-1.9,1.1-2.8-0.3c0.1-0.7,0.1-1.8,0.2-2.9c0.1-1,0.1-2.1,0.1-2.9
						c-0.5-1.4-1,0-1.5-0.1c0.1-1.4,0.1-2.8-0.2-2.8c-0.3-0.5-0.6-0.3-0.8,0.3c-0.3,0.6-0.4,1.6-0.5,3c0.7,1.5,1.1,3.6,1.5,5.7
						c0.2,1,0.3,2.1,0.4,3.1s0.3,1.8,0.4,2.5c0.3,1.4,0.5,2,1,1.3c0.3-0.3,0.6-1,1-2.2c0.2-0.6,0.4-1.2,0.6-2
						c0.1-0.4,0.3-0.8,0.3-1.3C372.8,267.1,372.8,266.6,373,266.1z"/>
					<path id="XMLID_1820_" class="st5" d="M373.3,278.1c0.5-2.6,1-5.2,1.2-7.8c-0.5-0.9-0.9-2-1.6-1.3
						C373,273.1,372.9,275.5,373.3,278.1z"/>
					<path id="XMLID_1819_" class="st5" d="M374.3,235.7c0.1,0,0.3,0.1,0.3,1.5C374.4,236.6,374.4,236.1,374.3,235.7
						c-0.1,0-0.3,0.1-0.6-0.5c1.4,5.1,2.5,11.2,2.9,17.2c0.3,0.8,0.6,1.5,0.8,2.2c-0.3-7.5-1.3-14.9-3.1-21.8
						c-1.8-6.9-4.4-13.2-7.5-18.4c0.5,1,0.9,1.9,1.2,2.8c0.4,0.9,0.8,1.8,1.1,2.7c0.2,0.5,0.4,0.8,0.5,1.3c0.2,0.5,0.3,0.8,0.5,1.3
						c0.3,0.8,0.6,1.7,1,2.5c0.1,0.4,0.3,0.8,0.5,1.2c0.1,0.5,0.3,0.8,0.4,1.3c0.3,0.8,0.5,1.8,0.8,2.6c0.3,0.9,0.5,1.8,0.7,2.7
						C373.8,233.7,374,234.6,374.3,235.7z"/>
					<path id="XMLID_1818_" class="st5" d="M379,255.7c0,0.5,0.1,1,0.1,1.6C379.3,255.9,379.1,255.7,379,255.7z"/>
					<path id="XMLID_1817_" class="st5" d="M187.8,198.5c-5,7.4-7.8,14.8-9.8,22.3c1.3-3.9,3-7.7,4.7-11.4c1.9-3.6,3.8-7.2,6-10.5
						c4.4-6.6,9.2-12.3,13.5-17C196.9,186.8,192,192.3,187.8,198.5z"/>
					<path id="XMLID_1816_" class="st5" d="M174.4,258.3c0-0.3,0-0.6,0-1s0.1-0.6,0.1-1c0.1-0.6,0.1-1.3,0.1-1.9
						c0-0.6,0.1-1.2,0.1-1.9c0-0.6,0.1-1.2,0.1-1.8c0.1-1.2,0.1-2.4,0.2-3.5c0.1-1.2,0.2-2.3,0.3-3.4c0.1-0.6,0.1-1.1,0.1-1.7
						c0.1-0.5,0.1-1.1,0.2-1.6c0.1-1.1,0.2-2.1,0.3-3.2c0.1-1,0.3-2.1,0.5-3.1c0.1-0.5,0.1-1,0.2-1.6c0.1-0.5,0.2-1,0.3-1.6
						c-2.1,8.2-2.9,16.6-2.9,24.9c0.1,0.4,0.1,0.8,0.1,1.2C174.3,257.5,174.4,257.9,174.4,258.3z"/>
					<path id="XMLID_1815_" class="st5" d="M173.4,246.5c0.1-1.2,0.3-2.4,0.4-3.6c0.1-0.6,0.1-1.2,0.2-1.8c0.1-0.6,0.1-1.1,0.3-1.7
						c0.3-2.3,0.7-4.4,1-6.6c0.8-4.2,1.6-8.3,2.7-12.3c-0.8,2.1-1.4,4.4-2,6.6c-0.3,1.1-0.5,2.2-0.8,3.3c-0.1,0.5-0.3,1.1-0.4,1.6
						s-0.2,1.1-0.3,1.6c-0.2,1.1-0.3,2.1-0.5,3.2c-0.1,1.1-0.2,2.1-0.3,3.2c-0.1,0.5-0.1,1-0.1,1.6c-0.1,0.5-0.1,1-0.1,1.6
						C173.5,244.5,173.4,245.5,173.4,246.5z"/>
					<path id="XMLID_1814_" class="st5" d="M328.5,149.8c3.6,1.6,6.5,2.9,8.8,4.2c1.1,0.6,2.1,1.1,2.9,1.6s1.5,1,2.1,1.4
						c1.2,0.5,2.8,1,4.8,1.9c-0.4-0.3-0.8-0.6-1.1-0.9c-6.9-4.7-14.3-8.7-22.1-11.9c-1.6-0.6-3.2-1.1-4.7-1.6
						c-1.6-0.5-3-0.8-4.4-1.1l3.5,1.4c1.2,0.5,2.3,1,3.4,1.6C324,147.5,326.3,148.7,328.5,149.8z"/>
					<path id="XMLID_1813_" class="st5" d="M342.2,157c-5.1-1.8-2.9-0.3-0.5,0.9S346.7,160,342.2,157z"/>
					<path id="XMLID_1812_" class="st5" d="M292.2,152.4c-0.3-0.1-0.7-0.1-1-0.2c-1-0.1-2.1-0.3-3.1-0.4
						C289.4,152,290.8,152.2,292.2,152.4z"/>
					<path id="XMLID_1811_" class="st5" d="M206.3,163.4c5.3-3.8,10.8-7.1,16.6-10.1c-11.9,5.8-22.7,13.9-30.1,22.1
						c1.2-1.1,2.5-2.1,3.8-3.1c1-1.2,2.4-2.8,4.1-4.4c0.8-0.8,1.7-1.6,2.7-2.3C204.3,164.9,205.3,164.1,206.3,163.4z"/>
					<path id="XMLID_1802_" class="st5" d="M337,170.1c-7-4.9-14.5-8.8-22.3-11.8l-1.4-0.6l-1.5-0.5c-1-0.3-1.9-0.6-2.9-1
						c-1-0.3-1.9-0.6-2.9-0.8c-1-0.3-1.9-0.6-2.9-0.8s-2-0.5-3-0.6c-1-0.2-1.9-0.5-3-0.6c-1-0.2-2-0.3-3-0.5c-0.5-0.1-1-0.2-1.5-0.3
						l-1.5-0.2c-15.9-2.9-32.1-2.1-46.8,2.2s-27.6,11.8-37.6,21.1c-4.4,4.1-9.4,9.2-14.1,15.2c-0.3,0.4-0.6,0.7-0.9,1.1
						c-0.3,0.4-0.6,0.8-0.8,1.2c-0.6,0.8-1.2,1.6-1.7,2.3c-0.6,0.8-1.1,1.6-1.6,2.5c-0.5,0.8-1.1,1.6-1.6,2.5
						c-0.5,0.8-1,1.8-1.6,2.6l-0.8,1.3l-0.7,1.4c-0.5,0.9-1,1.8-1.4,2.7c-0.5,0.9-0.8,1.8-1.3,2.7c-1.8,3.6-3.1,7.5-4.4,11.2
						c-0.3,1-0.5,1.9-0.8,2.9s-0.5,1.9-0.7,2.8c-0.2,1-0.4,1.9-0.6,2.8c-0.1,0.5-0.2,0.9-0.3,1.4s-0.1,0.9-0.2,1.4
						c-1.2,7.3-1.2,14.3-0.5,20c0.1-1.2,0.2-2.4,0.3-3.6c0.1-1.2,0.2-2.3,0.3-3.4c0,1.7,0.1,3.3,0.1,4.9c0,0.8,0.1,1.6,0.2,2.3
						c0.1,0.8,0.2,1.5,0.3,2.2c0.2,18.6,5.6,36.6,15.5,52c9.8,15.3,24,28,40.8,36c1.2,0.6,2.5,1,3.6,1.5c1.2,0.4,2.3,0.7,3.5,1.1
						c1.2,0.4,2.3,0.6,3.5,1c0.6,0.2,1.2,0.3,1.8,0.5s1.2,0.3,1.9,0.5c2.7,0.8,5.3,1.4,8.1,1.9c1.4,0.3,2.7,0.5,4,0.6
						c1.4,0.1,2.7,0.3,4,0.5c0-0.1-0.1-0.1-0.2-0.2c5.6,0.5,11.2,0.5,16.8,0.1c5.6-0.5,11.1-1.4,16.4-2.9c10.8-3,21-7.9,30.2-14.7
						c8.7-6.3,16.6-13.8,22.8-22.5c0.6-0.8,1.1-1.4,1.5-1.8c0.4-0.5,0.8-0.8,1.1-1c0.7-0.6,1.3-1,2.1-2c3.4-4.4,6-8.4,8.4-12.9
						c2.3-4.4,4.4-9.3,6-15.4c0,0,0.5,0.1,0.7,0.2c0.1-0.5,0.2-1,0.3-1.4c0.1-0.5,0.1-0.9,0.2-1.3c0.1-0.8,0.3-1.6,0.5-2.3
						c0.4,1.6,0.7,3.8,0.7,6c0,1.1,0.1,2.1,0.1,3.1s-0.1,1.8,0,2.5c0.1,1.4,0.3,2.1,0.9,1.5s1.8-2.6,3.1-6.8l0,0
						c-0.1,1-0.3,1.8-0.3,2.7c0,0.1-0.1,0.2-0.1,0.3l0,0c-0.1,1-0.3,1.9-0.4,2.8c-0.1,0.8-0.2,1.6-0.3,2.3c-0.1,0.7-0.1,1.4-0.2,2.1
						c-0.1,0.6-0.1,1.3-0.1,1.9l0.6-1.9c0.2-0.6,0.5-1.2,0.6-1.9c0.4-1.3,0.7-2.6,1.1-3.8c0.2,0.6,0.5,1,0.9,0.8c0,0.3,0,0.5,0,0.7
						c-0.3,1.2-0.6,2.1-0.6,2.1c0.1,0.5,0.2,0.8,0.3,1c-0.3,1.8-0.7,3.8-1.2,5.8c-0.5,1.9-1,4-1.6,5.6c-1,3.3-1.6,5.6-0.7,4.8
						c0.6-0.6,1.4-2.3,2.2-4.4c0.4-1.1,0.8-2.3,1.2-3.6c0.2-0.6,0.5-1.3,0.6-2c0.2-0.7,0.4-1.4,0.6-2.1c0.2-0.3,0.5-0.7,0.6-1
						c-1.2,3.8-0.7,4-0.2,3.8c0.3-0.1,0.6-0.3,0.7-0.2s0.2,0.5-0.2,1.7c-2.3,6-4.9,12-8.2,17.6c-3.4,5.7-7.1,10.8-11,15.6
						c-1,1.2-2,2.4-3.1,3.5s-2.1,2.2-3.1,3.4c-1.1,1-2.2,2.1-3.2,3.2c-0.5,0.5-1.1,1-1.7,1.6l-1.7,1.5c-4.5,4-9.4,7.6-14.6,11
						c-5.2,3.3-10.8,6.2-16.8,8.8c-1,0.5-2.1,0.9-3.2,1.3c-5.9,2.3-11.9,4-18,5.1c-3,0.6-6.1,1-9.2,1.3c-1.6,0.1-3.1,0.2-4.6,0.3
						c-1.6,0.1-3.1,0.1-4.7,0.1c0.8-0.2,1.6-0.4,2.5-0.6c-10,0.2-19.9-0.7-29.8-2.6c-12.1-2.1-23.8-6.5-34.9-12.7
						c-11-6.3-21.1-14.6-29.6-24.9c-9-10.8-15.8-22.9-20.5-36s-7.1-27-7-41.4c0.1,11.8,1.9,23.4,5.3,34.9c0.4,1.3,0.7,2.6,1.1,3.9
						c0.5,1.3,0.8,2.5,1.3,3.8c0.2,0.6,0.4,1.2,0.6,1.9c0.3,0.6,0.5,1.2,0.7,1.8c0.5,1.2,1,2.5,1.5,3.6c-0.5-1.2-1-2.5-1.4-3.8
						c-0.3-0.6-0.5-1.2-0.7-1.9c-0.2-0.6-0.5-1.2-0.6-1.9c-0.5-1.2-0.8-2.5-1.3-3.8c-0.4-1.2-0.8-2.5-1.1-3.8
						c-0.2-0.6-0.4-1.2-0.5-1.9l-0.5-1.9c-0.3-1.2-0.6-2.5-0.8-3.8s-0.5-2.5-0.6-3.8c-0.1-0.6-0.3-1.3-0.3-1.9l-0.3-1.9
						c-0.1-1.3-0.3-2.5-0.5-3.8c-0.1-1.3-0.2-2.5-0.3-3.8c-0.1-0.6-0.1-1.2-0.1-1.9c0-0.6-0.1-1.2-0.1-1.9c-0.1-1.2-0.1-2.5-0.1-3.7
						c-0.3-9.9,0.5-19.2,1.2-27.3c0.6-1.6,0.8-1.6,1.2-3.2c1.5-5.8,3.6-11.3,5.8-16.6c0.6-1.3,1.1-2.6,1.7-3.9
						c0.6-1.3,1.2-2.5,1.8-3.8c0.3-0.6,0.6-1.2,0.8-1.9c0.3-0.6,0.6-1.2,0.9-1.8c0.6-1.2,1.1-2.4,1.7-3.6c-0.2-0.1,2.5-4.5,1.2-3.3
						c0.3-0.5,0.6-1.1,1-1.7c0.4-0.5,0.7-1.1,1.1-1.6c0.8-1.1,1.5-2.2,2.3-3.3c1.7-2.2,3.3-4.4,5.1-6.6c1.8-2.2,3.7-4.2,5.5-6.2
						c1-1,1.9-1.9,2.9-2.9c0.5-0.5,0.9-1,1.4-1.4c0.5-0.5,1-0.9,1.4-1.4c0.8-0.8,1.6-1.6,2.4-2.3l2.5-2.3c0.8-0.8,1.6-1.6,2.5-2.3
						l2.5-2.3c7.5-5.7,15.7-10.5,24.4-14.2c8.7-3.8,17.9-6.7,27.4-8.3c9.5-1.7,19.4-2.3,29.3-1.7l0.9,0.1l0.9,0.1l1.9,0.2
						c1.2,0.1,2.5,0.2,3.8,0.4s2.5,0.4,3.8,0.5l1.9,0.3c0.6,0.1,1.2,0.3,1.9,0.3c1.2,0.3,2.5,0.5,3.8,0.7c1.2,0.3,2.5,0.6,3.8,0.9
						c1.2,0.3,2.5,0.6,3.8,1s2.5,0.8,3.8,1.1c1.2,0.4,2.5,0.8,3.8,1.3c1.2,0.5,2.5,0.9,3.8,1.5c2.5,1.1,5.1,2.2,7.6,3.5l1.9,1
						c0.6,0.3,1.2,0.6,1.9,1c1.2,0.7,2.4,1.4,3.6,2.1c1.2,0.6,2.3,1.4,3.5,2.1c1.1,0.7,2.3,1.4,3.3,2.2c-13.2-8.1-28.2-14-43.8-16.9
						c-7.5-1.8-15.1-2.8-22.2-2.9c-7.1-0.2-13.8,0.6-19.7,1.9c-1.4,0.3-2.7,0.6-4.1,0.9s-2.7,0.7-4.1,1c16.5-3.7,33.6-4,50.1-0.9
						c8.9,2.1,17.7,5.3,25.9,9.3c-0.2-0.1-0.3-0.1-0.5-0.2c-6.6-2.8-13.5-5-20.5-6.6c-6.6-1.9-13.1-3.1-19.5-3.7
						c-3.2-0.2-6.3-0.5-9.3-0.3c-0.8,0-1.5,0-2.2,0.1c-0.4,0-0.7,0-1.1,0s-0.7,0.1-1.1,0.1c-1.4,0.1-2.9,0.3-4.2,0.4
						c-0.7,0.1-1.4,0.2-2.1,0.3c-0.6,0.1-1.4,0.3-2,0.3c-2.7,0.4-5.5,1-8.2,1.6c10.1-1.8,20.5-2.4,30.7-1.6
						c6.4,0.5,12.7,1.4,18.9,2.9c3.8,1.1,7.7,2.4,11.4,3.9c-0.4-0.1-0.8-0.2-1.2-0.3c-0.8-0.3-2.1-0.5-3.5-0.5
						c-1.4-0.1-2.8-0.2-4-0.1c-2.4,0.3-3.7,0.8-1.4,1.9c6.2,1.8,13,4.4,19.4,7.5s12.5,6.7,17.6,10.3c2.5,1.9,4.9,3.6,6.9,5.3
						c1,0.8,2,1.6,2.9,2.4c0.8,0.8,1.6,1.5,2.3,2.1c1.4,1.3,2.5,2.4,3.2,3.2c0.4,0.4,0.6,0.6,0.8,0.9c0.2,0.2,0.3,0.3,0.3,0.3
						c0.1,0.3-0.4-0.1-1.2-0.7c-0.8-0.6-2-1.8-3.6-3c-0.8-0.6-1.6-1.3-2.5-2.1c-0.8-0.7-1.9-1.4-2.9-2.2c-1.9-1.6-4.2-3.1-6.4-4.7
						c-1.1-0.8-2.3-1.5-3.3-2.2c-0.5-0.3-1.1-0.7-1.6-1s-1.1-0.6-1.6-1c-1.1-0.6-2.1-1.2-3.1-1.8c-1-0.5-1.9-1-2.8-1.5
						c-0.8-0.5-1.6-0.8-2.3-1.2c-0.7-0.3-1.3-0.6-1.8-0.8c-1-0.4-1.4-0.6-1.2-0.5c1,0.6,2.1,1.2,3.2,1.9c1,0.6,2.1,1.3,3.1,1.9
						c-1-0.5-2.1-1-3.2-1.4c-1-0.5-2.1-0.8-3.1-1.2c-1.2-0.5-2.3-1.1-3.6-1.7c-1.2-0.5-2.5-1.1-3.8-1.7c-1.2-0.5-2.5-1-3.6-1.4
						s-2.1-0.7-2.9-0.8c-5.7-1.2-11.7-2.6-17.9-3.6c-0.8-0.1-1.6-0.3-2.3-0.3c-0.8-0.1-1.6-0.3-2.4-0.3c-1.6-0.1-3.2-0.3-4.8-0.5
						c-1.6-0.1-3.2-0.1-4.9-0.1c-1.6,0-3.2,0.1-4.9,0.1c-0.5,0.1-1,0.1-1.6,0.1c-0.5,0.1-1,0.1-1.6,0.2c-1,0.1-2.1,0.3-3.2,0.4
						c-1.1,0.1-2.2,0.3-3.3,0.5s-2.2,0.4-3.4,0.6c-4.5,1-9.2,2.2-13.7,3.8c0.1,0.3-1.1,0.6-2,0.8c-0.9,0.3-1.7,0.6-0.8,0.6
						c-2.1,0.6-4.4,1.2-6.5,1.9c-1,0.4-2.1,0.7-3.2,1.1c-1,0.5-2,0.8-2.9,1.3c-1.9,0.8-3.6,1.8-4.9,2.6c-1.4,0.8-2.5,1.8-3.1,2.5
						c-0.2,0.1-0.4,0.2-0.5,0.3c-0.5,0.3-1.3,0.8-2.1,1.3c-6.4,3.4-11.4,7.1-15.7,11.2c-4.4,4.1-8.1,8.5-12,13.6
						c-0.7,0.8-1.4,1.7-2.1,2.6c-0.6,0.9-1.4,1.8-2,2.7c-0.3,0.5-0.7,0.9-1,1.4s-0.6,0.9-1,1.4c-0.6,0.9-1.3,1.9-1.9,2.9
						c0.8-1.2,2-2.7,3.1-4.3c1.2-1.5,2.3-3,3.2-4.2c0.6-0.8,1.2-1.6,1.8-2.4c3.7-4.4,7.5-8.5,11.7-12.3s8.5-7.1,13.1-10.3
						c0.7-0.6,1.9-1.5,3-2.3c0.7-0.4,1.4-0.7,2.2-1c0.1-0.2,0.3-0.4,0.5-0.5c4.6-2.7,9.8-5.3,15-7.1c5.2-1.9,10.3-3.5,14.9-4.6
						c2.1-0.5,4.3-0.8,6.5-1.2c1.1-0.2,2.2-0.3,3.3-0.4c1.1-0.1,2.2-0.2,3.4-0.3c1.1-0.1,2.3-0.1,3.4-0.1c1.1-0.1,2.3-0.1,3.4-0.1
						c2.3,0.1,4.5,0.1,6.8,0.3c1.1,0.1,2.3,0.2,3.4,0.3l3.4,0.5l1.7,0.3c0.6,0.1,1.1,0.2,1.7,0.3l3.4,0.6c1.1,0.2,2.2,0.5,3.3,0.8
						s2.2,0.5,3.3,0.8c2.1,0.6,4.4,1.2,6.4,2c-2.1-0.6-4.3-1.1-6.4-1.6l-0.8-0.2l-0.8-0.1l-1.6-0.3c-1.1-0.2-2.1-0.4-3.2-0.6
						c-4.4-0.6-8.6-1-12.9-1c0.6,0,1.3,0.1,2,0.1c0.6,0,1.3,0.1,1.9,0.1c1.3,0.1,2.6,0.2,3.9,0.3c2.6,0.4,5.1,0.6,7.7,1.2
						c5,0.8,9.9,2.1,14.5,3.6c1.4,0.6,2.8,1.1,4.2,1.7c0,0,2.1,1,4.4,1.9c2.1,1.1,4.2,2.1,4.2,2.1c-1.3-0.7-2.6-1.4-3.8-2.1
						c-1.3-0.6-2.6-1.3-4-1.9c5.5,2.1,10.8,4.6,15.9,7.5c6.9,4.1,13.4,9,19.4,14.5c5.9,5.7,11.2,12,15.7,18.9
						c9.1,13.8,14.8,29.9,16.6,46.2c-0.4-0.6-0.8-1.3-1.2-2.1c-1.2-7.7-3.1-15.4-5.8-22.3c-2.7-6.9-6.2-13.2-10.1-18.2
						c0.6,1,1.1,1.9,1.6,2.8c0.3,0.5,0.5,0.9,0.8,1.3c0.3,0.5,0.5,0.9,0.7,1.3c0.9,1.8,1.9,3.4,2.7,5.1c0.4,0.8,0.8,1.7,1.2,2.5
						c0.4,0.8,0.8,1.8,1.2,2.6c0.4,0.9,0.8,1.8,1.2,2.7c0.3,1,0.7,1.9,1,3c-0.1,0.1-0.3,0.2-0.6-0.5c2.1,5.1,4,11.3,5.1,17.5
						c-1-1.9-1.9-4-3.2-6c-0.6-1.5-1.1-3.4-1.8-5.4c-0.3-1-0.6-2.1-1-3.2c-0.4-1-0.8-2.1-1.2-3.2c-1.8-4.7-3.8-9.3-6.1-13.6
						c-1.1-2.2-2.4-4.3-3.6-6.4c-0.6-1-1.4-2-2-3.1c-0.3-0.5-0.6-1-1-1.5l-1-1.5c-5.7-7.9-12.4-14.9-20.2-21l-2.6-2
						c-0.5-0.3-0.8-0.7-1.3-1l-1.4-1l-2.7-1.9l-2.7-1.8c-1.8-1.2-3.8-2.3-5.7-3.4c-1-0.5-1.9-1-2.9-1.6c-1-0.5-1.9-1-2.9-1.5
						c-7.9-3.7-16.2-6.5-24.6-8.1c8.4,1.3,16.4,3.6,23.9,6.6C323.5,162,330.5,165.7,337,170.1z M360.1,308.5c-0.3,0.7-0.6,1.4-1,2.1
						c-0.4,0.7-0.7,1.4-1.1,2.1c0.2-0.2,0.3-0.3,0.5-0.5c0.4-0.6,0.7-1.2,1-1.9C359.7,309.7,359.9,309.1,360.1,308.5z M337.9,334.8
						c4-3.1,8.2-7.3,12.1-12.1c3.9-4.9,7.4-10.5,10.3-16.1c0-0.1-0.1-0.2-0.1-0.2c-2.7,4.7-5.9,9.7-9.7,14.6
						C346.8,325.9,342.5,330.7,337.9,334.8z M301.3,349.6c0.1,0,0.2,0,0.3,0c0-0.1-0.1-0.1-0.1-0.1
						C301.4,349.5,301.3,349.5,301.3,349.6z M166.9,270.8c1.4,5.9,3.1,12.5,5.6,19.2s5.7,13.5,9.7,19.8c2.3,3.8,5.6,7,9.3,11.6
						c2.4,2.8,4.5,4.9,6.6,6.7c0.5,0.5,1,0.9,1.5,1.4s1,0.8,1.6,1.3c0.5,0.5,1,0.8,1.6,1.3c0.5,0.5,1.1,0.8,1.7,1.4
						c0,0-0.2-0.2-0.5-0.5s-0.6-0.7-1-1.1c-0.7-0.8-1.4-1.7-1.4-1.7c1.8,1.8,3.6,3.2,5.2,4.6c0.8,0.6,1.7,1.2,2.5,1.8
						s1.6,1.2,2.5,1.7c1.7,1,3.4,2.1,5.2,3.2c0.9,0.5,1.8,1.2,2.8,1.8s2,1.2,3.1,1.9c0.1-0.1,0.5-0.1,1,0c0.6,0.1,1.2,0.3,1.9,0.6
						c0.8,0.4,1.6,0.8,2.4,1.2c0.8,0.4,1.6,0.7,2.4,1.1c0.8,0.3,1.6,0.8,2.4,1.1c0.8,0.3,1.6,0.6,2.4,1c1.6,0.6,3.1,1.2,4.7,1.7
						c1.5,0.5,3,0.8,4.4,1.1c6.9,1.7,14,2.8,19.7,2.7c0.7,0.1,1.8,0,3.1-0.3c1.2-0.2,2.7-0.4,4.1-0.5c1.7-0.1,3.4-0.2,5.1-0.3
						c1.7-0.2,3.4-0.3,5.1-0.5c-0.1-0.1-0.3-0.1-0.5-0.1c-1.4,0.1-2.8,0.2-4.2,0.3s-2.8,0.1-4.2,0.3c-0.5,0.1-1,0.1-1.6,0.1
						c-0.5,0-1.1,0.1-1.6,0.1c-1.1,0.1-2.2,0.1-3.3,0.1s-2.3-0.1-3.4-0.1c-0.6,0-1.2,0-1.7-0.1l-1.7-0.1c-4.6-0.3-9.1-1.1-13.2-2
						c-20.7-5-38.6-15.7-52.5-30.7l-2.2-2.4l-1.1-1.2c-0.4-0.4-0.7-0.8-1.1-1.2l-2.1-2.5c-0.6-0.8-1.3-1.8-1.9-2.7
						c-4-5.3-7.5-11.9-10.1-18.2c-2.7-6.3-4.5-12.4-6.2-16.6c-0.3-0.7-0.5-1.8-0.8-2.9C167.5,272.7,167.3,271.6,166.9,270.8z
						 M155.1,253.6c0.3,8.8,1.4,18.1,3.4,26.9c2.1,8.8,5.1,17.3,8.4,24.9c1.4,3.1,3.7,7.3,6.6,11.8c2.9,4.4,6.6,9,10.1,12.7
						c0.9,0.9,1.8,1.8,2.7,2.6c0.5,0.4,0.8,0.8,1.2,1.2c0.5,0.4,0.8,0.7,1.2,1c1.6,1.4,3.1,2.5,4.3,3.2c2.4,1.5,3.6,1.8,3,0.1
						c-3.8-1.6-10.6-7.3-17-15.8c-3.2-4.2-6.4-9.2-9-14.5c-2.7-5.3-5-11-6.8-16.6c-1.8-5.7-3-11.2-3.9-16.2
						c-0.2-1.2-0.4-2.5-0.5-3.7c-0.2-1.2-0.4-2.3-0.5-3.4c-0.1-1.1-0.3-2.1-0.3-3.2c-0.1-0.5-0.1-1-0.2-1.5c-0.1-0.5-0.1-1-0.1-1.4
						c-0.1-1.8-0.3-3.4-0.5-4.7c-0.1-1.3-0.3-2.4-0.5-3.1C156.4,252.4,155.8,252.2,155.1,253.6z M231.2,143.1
						c-6.8,2.8-13.1,6-20.2,10.1C217.4,149.3,224.2,145.8,231.2,143.1z M181.2,193.1c1.3-2.3,2.8-4.4,4.3-6.6c1.6-2.1,3.2-4.3,5-6.3
						c1.7-2.1,3.6-4,5.5-6c1.9-1.9,4-3.8,6-5.5l1.6-1.3c0.5-0.5,1.1-0.8,1.6-1.2c1.1-0.8,2.1-1.7,3.2-2.5c1.1-0.8,2.3-1.6,3.4-2.3
						l0.8-0.6l0.8-0.5l1.8-1.1l1.8-1.1c0.6-0.3,1.2-0.6,1.8-1c1.2-0.6,2.3-1.4,3.6-1.9c2.4-1.2,4.8-2.5,7.2-3.5
						c7.5-3.4,15.9-5.5,24.2-6.8c8.3-1.2,16.5-1.7,24-2.1l0.1-0.8c0,0-0.4,0.1-0.8,0.1c-0.4,0.1-0.8,0.1-0.8,0.1
						c-1.4-0.1-2.9-0.2-4.2-0.3c-1.4-0.1-2.6-0.1-3.9-0.1c-0.6,0-1.2-0.1-1.9-0.1c-0.6,0-1.2-0.1-1.8,0c-1.2,0-2.5,0.1-3.7,0.1
						c0.3-0.1,0.6-0.1,0.8-0.1c-0.5,0.1-1,0.1-1.5,0.1c-3.2,0.2-6.7,0.6-10.5,1.6c-1.8,0.4-3.5,1-5.3,1.5l-1.9,0.5l-1.9,0.6
						c-1.2,0.4-2.5,0.8-3.8,1.2l-3.7,1.4c-0.6,0.3-1.2,0.5-1.8,0.7l-1.8,0.8c-4.9,1.9-9.5,4.4-13.9,7c-1.1,0.6-2.2,1.4-3.2,2
						c-1.1,0.6-2.1,1.4-3.1,2.1c-2.1,1.4-4,3.1-6,4.5c-3.8,3.2-7.3,6.5-10.3,10c-0.5,0.5-1,1-1.4,1.6c-0.5,0.5-0.9,1.1-1.4,1.6
						c-0.8,1.1-1.8,2.1-2.5,3.2c-0.8,1.1-1.6,2.2-2.3,3.2l-0.6,0.8l-0.5,0.8l-1,1.7c-1.5,2.2-2.7,4.5-4,6.8
						c-1.2,2.4-2.5,4.7-3.7,7.3c0.4-0.7,0.8-1.4,1.4-2.3c0.5-0.8,1.1-1.6,1.6-2.5c0.5-0.8,1.1-1.7,1.6-2.5
						C180.3,194.5,180.8,193.7,181.2,193.1z"/>
					<path id="XMLID_1801_" class="st5" d="M312,155.3c6.5,2.3,12.8,5.2,18.8,8.7c2.4,1.3,4.7,2.8,6.9,4.2c2.2,1.6,4.5,3.1,6.6,4.7
						c5.1,4,10,8.7,14.5,14s8.5,11.2,11.9,17.5c6.9,12.7,11.2,26.9,13,40.8c0.5,0.4,0.8,0.6,1.2,0.5c0.4-0.1,0.8-0.3,1.1-0.8
						c-1.2-15.6-6.2-30.8-14-44.3s-18.4-25.3-30.5-34.9c-0.2-0.1-0.4-0.3-0.6-0.4c-5.8-3.4-13.2-7.9-21.5-11.5
						c-8.3-3.6-17.4-6.4-25.5-7.3c-8.1-0.8-16.2-1.1-24.3-0.5c-8,0.6-15.9,2-23.5,4.4c2.8-0.7,5.6-1.2,8.4-1.7
						c2.8-0.4,5.6-0.8,8.4-1c2.8-0.3,5.6-0.3,8.4-0.4c2.8,0.1,5.6,0,8.4,0.3c2.8,0.1,5.5,0.5,8.3,0.8c2.7,0.5,5.5,0.9,8.2,1.6
						c2.7,0.6,5.4,1.4,8.1,2.2c1.3,0.5,2.7,0.9,4,1.4c0.6,0.2,1.3,0.5,1.9,0.8L312,155.3z"/>
					<path id="XMLID_1800_" class="st5" d="M177,231.1c1.3-5.3,3.1-10.7,5.4-15.8c0.3-0.9,0.8-1.8,1.2-2.7c0.4-0.8,0.8-1.8,1.2-2.6
						c0.5-0.8,0.9-1.7,1.3-2.5c0.2-0.4,0.5-0.8,0.6-1.2c0.2-0.4,0.5-0.8,0.7-1.2c0.9-1.6,1.8-3.2,2.9-4.8c0.5-0.8,1-1.6,1.5-2.3
						s1-1.5,1.6-2.2c4.2-5.9,9-11.4,14.3-16.3c-8.1,6.9-15.3,14.9-21.1,24.1c-2.8,4.6-4.8,9.2-6.2,13.8
						C178.8,221.8,177.7,226.4,177,231.1z"/>
					<path id="XMLID_1799_" class="st5" d="M216.8,171.8c-0.8,0.6-1.6,1.2-2.4,1.8c-0.8,0.6-1.6,1.2-2.3,1.9l-1.2,0.9l-1.1,1
						l-2.2,1.9c6.1-5.1,12.7-9.4,19.7-13s14.5-6.2,22.1-8.1c12.5-3.2,25.8-4.1,39-2.4c13.1,1.6,25.9,5.8,37.7,12.3
						c1.3,0.8,2.7,1.5,3.9,2.3c1.2,0.8,2.5,1.7,3.8,2.5c-10-7.5-21.4-13.2-33.3-16.6c-6-1.8-12-2.9-18.1-3.6
						c-6.1-0.6-12.2-0.6-18.2-0.2c-1.5,0.1-3,0.3-4.5,0.5s-2.9,0.5-4.4,0.6c-1.4,0.3-2.9,0.6-4.4,0.8c-0.7,0.1-1.4,0.3-2.1,0.5
						s-1.4,0.4-2.1,0.5c-5.7,1.5-11.1,3.5-16.2,5.8c-5.1,2.4-9.9,5.3-14.4,8.4c-0.5,0.4-1.1,0.8-1.6,1.2s-1.1,0.8-1.6,1.2
						c-1,0.8-2.1,1.7-3.1,2.5c-2,1.8-4,3.5-5.8,5.4c-0.5,0.5-1.2,1.1-1.7,1.8c14.4-13.4,32.4-22.6,51.6-26.2
						C240.5,158.4,227.7,164,216.8,171.8z"/>
					<path id="XMLID_1798_" class="st5" d="M305.7,153.3c0.7,0.3,1.4,0.5,2.1,0.7l1,0.4l1,0.4c0.8,0.3,1.7,0.6,2.5,0.8
						c0.8,0.3,1.6,0.6,2.5,0.9c-1-0.5-1.9-0.8-2.9-1.3c-1-0.4-2.1-0.7-3.1-1.1C307.8,153.8,306.8,153.6,305.7,153.3z"/>
					<path id="XMLID_1797_" class="st5" d="M260.7,141.6c-0.2,0-0.4,0-0.6,0c-5.3,0.7-10.6,1.6-15.8,3.1c-7.1,2.1-14.4,5.1-21.4,8.6
						c6.4-3.2,13.1-5.7,19.5-7.6C248.9,143.8,255.1,142.5,260.7,141.6z"/>
					<path id="XMLID_1796_" class="st5" d="M213.6,149.4c-0.8,0.4-1.9,1-3.1,1.7c-1.2,0.6-2.3,1.3-3.1,1.8c-0.8,0.7-1.6,1.4-2.5,2.1
						c1.4-0.8,2.8-1.8,4.2-2.6c0,0,1.1-0.8,2.1-1.6c0.5-0.4,1.1-0.8,1.5-1C213.4,149.5,213.6,149.4,213.6,149.4z"/>
					<path id="XMLID_1795_" class="st5" d="M156.2,230.3c2.9-14.8,8.6-28.6,16.5-40.9c7.8-12.3,17.7-22.9,29.2-31.6
						c0.5-0.5,1-1,1.6-1.4c0.5-0.5,1-0.9,1.6-1.4c-2.1,1.2-4,2.7-6,4.1c-1,0.6-1.9,1.5-2.9,2.2c-1,0.8-1.9,1.5-2.8,2.3
						c-0.9,0.8-1.8,1.6-2.7,2.4l-1.4,1.2l-1.3,1.2c-0.8,0.8-1.7,1.7-2.5,2.5s-1.6,1.8-2.4,2.6c-3.2,3.4-6,7.2-8.6,11
						c-0.6,1-1.2,1.9-1.9,2.9c-0.6,1-1.2,1.9-1.8,2.9c-0.5,1-1.1,1.9-1.6,2.9c-0.3,0.5-0.5,1-0.8,1.5s-0.5,1-0.7,1.5
						c-1.6,3.1-3.3,8.1-4.7,11.2c-6.6,14.9-9.3,30.5-9.1,45.7c0.1-7.3,0.8-14.6,2.1-22.1C156.1,230.7,156.2,230.5,156.2,230.3z"/>
				</g>
			</g>
		</g>
	</g>
	<g id="XMLID_1354_">
		<g id="XMLID_1489_">
			<g id="XMLID_1493_">
				<g id="XMLID_1494_">
					<path id="XMLID_1516_" class="st1" d="M357.8,124.9c7.7,4.5,14.9,9.5,21.8,15.2c1.7,1.4,3.4,2.9,5.1,4.3
						c1.6,1.5,3.2,3.1,4.8,4.5c0.8,0.7,1.6,1.6,2.3,2.3l2.3,2.4c0.8,0.8,1.6,1.6,2.3,2.4s1.4,1.6,2.1,2.5c2.9,3.2,5.6,6.7,8.2,10.1
						c1.2,1.8,2.5,3.5,3.8,5.3c0.6,0.8,1.2,1.8,1.8,2.7c0.6,0.9,1.2,1.8,1.8,2.7c0.6,0.9,1.2,1.8,1.7,2.7s1,1.8,1.6,2.7
						c0.5,0.9,1,1.8,1.6,2.7c0.3,0.5,0.5,0.9,0.8,1.4l0.7,1.4c1,1.8,1.9,3.7,2.9,5.5c0.8,1.9,1.7,3.7,2.6,5.6
						c-5.3-11.8-11.9-23.1-19.8-33.4c5.8,7.7,10.6,15.4,14.7,23.4c0.5,1,1,2,1.5,3.1l0.7,1.5c0.3,0.5,0.5,1,0.7,1.6
						c0.9,2.1,1.8,4.2,2.7,6.3c0.8,2.1,1.6,4.4,2.4,6.6c0.5,1.1,0.7,2.3,1.1,3.4c0.3,1.2,0.7,2.3,1,3.5c-0.6-1.4-1.4-3.1-2.1-5.1
						c-0.8-1.9-1.6-4-2.5-6c-0.5-1-0.8-2-1.2-2.9c-0.5-0.9-0.8-1.8-1.2-2.5c-0.8-1.6-1.5-2.7-2.1-3.3
						c-10.1-21.2-24.5-40.3-42.1-55.9c-8.8-7.7-18.3-14.7-28.5-20.4c-10.2-5.8-20.9-10.5-32-14c9.2,1.6,16.2,4.4,22.1,7.8
						c0.7,0.4,1.5,0.8,2.2,1.2s1.4,0.8,2.1,1.2c1.4,0.8,2.7,1.7,4.1,2.6c0.6,0.4,1.4,0.8,2,1.2l2,1.3
						C355.1,123.2,356.5,124.1,357.8,124.9z"/>
					<path id="XMLID_1515_" class="st1" d="M437.8,268.7c-0.1-2.3-0.1-4.7-0.2-7c0-0.6,0-1.2-0.1-1.8s-0.1-1.2-0.1-1.7
						c-0.1-1.2-0.2-2.3-0.3-3.4c0.1,1.2,0.3,2.4,0.3,3.6c0.1,0.6,0.1,1.2,0.1,1.8s0.1,1.2,0.1,1.8
						C437.8,264.2,437.8,266.5,437.8,268.7z"/>
					<path id="XMLID_1514_" class="st1" d="M118.2,230.9l-0.8,3.8l-0.4,1.9c-0.1,0.6-0.2,1.2-0.3,1.9c-0.2,1.2-0.4,2.5-0.6,3.8
						c-0.2,1.2-0.5,2.5-0.6,3.7c0.1-1.2,0.3-2.5,0.5-3.8c0.2-1.2,0.4-2.5,0.6-3.8c0.1-0.6,0.2-1.2,0.3-1.9l0.4-1.9L118.2,230.9z"/>
					<path id="XMLID_1513_" class="st1" d="M299,108.9c-2.7-0.4-5.5-0.5-8.3-0.7c-20.8-2.7-42.5-1.4-63.5,4.2
						c11.4-3.1,23.5-5.4,35.7-6.1C275.1,105.5,287.4,106.3,299,108.9z"/>
					<path id="XMLID_1512_" class="st1" d="M320.4,116.3c10.1,3.2,19.9,7.5,29,12.9c9.1,5.3,17.4,11.6,24.7,18.4
						c-7.3-6.8-15.7-12.9-24.7-18.2C340.4,124.1,330.7,119.6,320.4,116.3z"/>
					<path id="XMLID_1511_" class="st1" d="M164.7,368.3c0.1-0.2,0.5,0,0.9,0.3c0.5,0.4,0.8,0.7,1.2,0.9c5.2,5.8,10.8,11.2,17,16.1
						c-1.6-1.1-3.2-1.9-4.8-3.2c-0.8-0.6-1.5-1.4-2.1-2s-1.2-1.2-1.8-1.8c-0.5-0.5-1-1-1.6-1.6c-0.5-0.5-0.9-1-1.4-1.6
						c-0.9-1-1.9-2-3.1-3.2c-0.6-0.6-1.2-1.2-1.9-1.9C166.4,369.8,165.6,369.1,164.7,368.3z"/>
					<path id="XMLID_1510_" class="st1" d="M119.6,225.3c0-0.2,0-0.4,0.1-0.5c0.5-1.7,0.8-3.4,1.4-5c0.1-0.2,0.2-0.4,0.3-0.6
						c-0.3,1-0.6,2-0.8,3.1C120.1,223.3,119.9,224.3,119.6,225.3z"/>
					<path id="XMLID_1509_" class="st1" d="M158.2,360.7c0.2-0.3,0.4-0.7,0.2-1.4c1.2,1.8,2.7,3.4,4.1,5.2l1,1.3
						c0.3,0.5,0.7,0.8,1,1.2l2.2,2.5c-0.4-0.3-0.8-0.6-1.2-0.8c-0.5-0.5-1.2-1.1-1.8-1.7c-0.6-0.6-1.2-1.4-1.8-2.1
						c-0.6-0.7-1.3-1.4-1.9-2.1c-0.3-0.3-0.6-0.6-1-1C158.8,361.3,158.6,360.9,158.2,360.7z"/>
					<path id="XMLID_1508_" class="st1" d="M128.5,267.9c0.1-2.8-0.6-5.3-0.8-6.6c0.9-7.1,2.2-14.2,4.2-22.4c0.1-1.3,0.7-4,1-6.6
						c0.7-1.4,1.4-2.9,2.1-4.5c-5.4,17.7-7.5,36.8-5.7,56.3c-0.1-0.6-0.1-1.3-0.2-1.9s-0.1-1.3-0.2-1.9c-0.1-1.3-0.2-2.7-0.3-4
						c0-1.4-0.1-2.7-0.1-4.1C128.6,270.7,128.5,269.3,128.5,267.9z"/>
					<path id="XMLID_1507_" class="st1" d="M425.4,272.6c0.1,6.6-0.7,13.5-1.8,20.5c-0.3,1.8-0.6,3.4-1,5.2l-0.3,1.3
						c-0.1,0.5-0.2,0.8-0.3,1.3l-0.6,2.6c-0.8,3.4-1.9,6.8-2.9,10.3c-4.4,13.5-10.3,26.3-16.6,37.7c4.4-6.2,8.6-13.4,12.1-21
						c3.6-7.5,6.4-15.4,8.7-22.5c4.4-14.4,6-26.2,7.8-28.4c0.9-1.1,1.2,1,1,5.3c-0.1,2.1-0.5,4.7-0.8,7.7c-0.2,1.5-0.5,3.1-0.8,4.7
						c-0.1,0.8-0.3,1.7-0.5,2.5c-0.1,0.5-0.2,0.8-0.3,1.3c-0.1,0.5-0.2,0.8-0.3,1.3c-1.6,7.1-4.2,14.9-7.1,22.2
						c-0.8,1.8-1.6,3.6-2.3,5.4c-0.3,0.9-0.8,1.8-1.2,2.6c-0.4,0.8-0.8,1.7-1.2,2.5s-0.8,1.6-1.2,2.5c-0.4,0.8-0.8,1.6-1.2,2.3
						c-0.8,1.5-1.5,3-2.2,4.4c1.8-2.7,1.8-2.7,3.6-5.5c-0.9,1.4-1.8,2.7-2.6,4.2c-0.4,0.7-0.8,1.4-1.1,2.1c-0.3,0.6-0.7,1.4-1,2
						c0.5-0.6,1-1.4,1.6-2.3c0.5-0.8,1.1-1.8,1.6-2.7c0.6-0.9,1.2-1.9,1.8-2.9c0.6-1,1.1-2,1.7-3s1.1-1.9,1.6-2.9
						c0.5-0.9,1-1.8,1.5-2.6c0.8-1.6,1.6-2.9,2.2-3.7c0,0-0.4,1.4-0.7,2.9c-0.2,0.7-0.4,1.4-0.5,2c-0.1,0.3-0.1,0.5-0.2,0.6
						s-0.1,0.3-0.1,0.3c1.1-1.8,2.2-4,3.4-6.2c0.3-0.6,0.6-1.2,0.8-1.8c0.3-0.6,0.5-1.2,0.8-1.8c0.5-1.2,1.1-2.5,1.7-3.8
						s1-2.7,1.6-4.1c0.5-1.4,1-2.8,1.5-4.2c0.3-0.7,0.5-1.4,0.7-2.2c0.2-0.7,0.5-1.5,0.6-2.2c0.5-1.5,0.8-3,1.3-4.5
						c0.4-1.5,0.7-3.1,1.1-4.5c0.2-0.8,0.4-1.5,0.5-2.3l0.3-1.1l0.2-1.1c0.3-1.5,0.6-3,0.8-4.5c0.3-1.5,0.6-2.9,0.8-4.4
						c0.2-1.4,0.5-2.9,0.6-4.2c0.2-1.4,0.5-2.7,0.6-4c0.3-2.6,0.6-5,1-7.2c-1,10.7-2.8,21.8-5.7,32.9c-2.9,11.2-6.9,22.3-12.2,33.3
						c-5.3,11-11.8,21.6-19.4,31.7c-7.7,10-16.6,19.4-26.6,27.7c-0.6,0.5-1.2,1-1.9,1.6l-1.9,1.5c-1.3,1-2.5,2-3.9,3
						c-1.3,1-2.7,1.9-4,2.9c-0.6,0.5-1.3,1-2,1.4l-2.1,1.4c-1.4,0.9-2.7,1.8-4.2,2.7l-4.2,2.5c-2.8,1.7-5.8,3.1-8.7,4.7l-1.1,0.6
						l-1.1,0.5l-2.3,1c-1.5,0.6-3,1.4-4.5,2l-4.6,1.9l-2.3,0.9l-2.3,0.8l-4.7,1.6c-1.6,0.5-3.2,1-4.7,1.4l-2.4,0.7
						c-0.4,0.1-0.8,0.3-1.2,0.3l-1.2,0.3l-4.8,1.2c-1.6,0.4-3.2,0.7-4.9,1l-4.9,0.9c-1.6,0.3-3.2,0.5-4.9,0.7
						c-1.6,0.2-3.2,0.5-4.9,0.6c-1.6,0.1-3.2,0.3-4.9,0.5c-0.8,0.1-1.6,0.2-2.5,0.2l-2.5,0.1c-1.6,0.1-3.2,0.1-4.9,0.2
						c-1.6,0.1-3.2,0-4.9-0.1s-3.2,0-4.9-0.1c-1.6-0.1-3.2-0.2-4.9-0.3l-2.4-0.1c-0.8-0.1-1.6-0.2-2.4-0.3c-1.6-0.2-3.2-0.4-4.8-0.6
						l-1.2-0.1c-0.4-0.1-0.8-0.1-1.2-0.2l-2.4-0.4c-1.6-0.3-3.2-0.5-4.7-0.8c-1.6-0.3-3.1-0.7-4.7-1c-1.6-0.4-3.1-0.6-4.7-1.1
						c-13.8-3.4-27-8.4-39.3-14.9c-1.5-0.8-3.1-1.6-4.5-2.5s-3-1.8-4.4-2.6l-2.2-1.3l-2.1-1.4c-1.4-0.9-2.9-1.9-4.3-2.8
						c-5.6-4-11-8-16.1-12.5c-5.1-4.4-9.9-9.2-14.5-14c-1.1-1.2-2.2-2.5-3.3-3.8c-1.1-1.2-2.2-2.5-3.2-3.8c-2.1-2.6-4.2-5.1-6-7.9
						c-1-1.4-1.9-2.7-2.9-4s-1.8-2.7-2.7-4.1c-0.9-1.4-1.8-2.7-2.6-4.2c-0.8-1.4-1.7-2.8-2.5-4.2s-1.6-2.9-2.3-4.3
						c-0.8-1.4-1.5-2.9-2.3-4.4c-0.7-1.5-1.4-2.9-2.1-4.4l-1-2.2l-0.5-1.1l-0.5-1.1c-0.5-1.2-1-2.5-1.5-4c-0.3-0.8-0.6-1.6-0.8-2.4
						c-0.3-0.8-0.5-1.8-0.8-2.7c-0.5-1.8-1.1-3.8-1.7-5.9c-0.5-2.1-1-4.3-1.5-6.6c-0.1-0.6-0.3-1.1-0.4-1.7
						c-0.1-0.6-0.2-1.2-0.3-1.8c-0.2-1.2-0.4-2.3-0.6-3.5c-0.2-1.2-0.4-2.3-0.6-3.5c-0.1-1.2-0.3-2.3-0.4-3.5
						c-0.6-4.7-0.8-9.3-1.1-13.5c-1-14.8-0.1-29.7,2.5-44.4l1.1-5.5c0.2-0.9,0.4-1.8,0.6-2.7l0.7-2.7l1.4-5.4l1.6-5.3l0.8-2.7
						l0.9-2.7c0.6-1.8,1.2-3.5,1.9-5.3s1.4-3.4,2.1-5.2l1-2.6c0.4-0.8,0.8-1.7,1.2-2.5c0.8-1.8,1.8-3.6,2.6-5.3
						c1-1.8,1.9-3.4,2.9-5.2c0.5-0.8,0.9-1.8,1.5-2.6l1.6-2.5l1.6-2.5c0.5-0.8,1-1.7,1.6-2.5l3.4-4.9l0.8-1.2l0.9-1.2l1.8-2.3
						c2.3-3.2,5-6.1,7.5-9.1c10.6-11.7,22.7-22,36.3-30.4c27-16.9,59.1-26.5,92.9-26.8c1.7-0.1,3.4,0.1,5.2,0.2s3.4,0.3,4.9,0.5
						c3.1,0.5,5.6,1.2,6.6,1.7s0.6,1-2.1,1.2c-1.4,0.1-3.3,0.1-5.9,0.2c-1.3,0.1-2.8,0.1-4.4,0.1s-3.5,0-5.5,0.1
						c-13.4,0.7-26.8,2.8-39.9,6.3c-13.1,3.6-25.7,8.6-37.6,14.9c0.6-0.6,1.8-1.4,3.2-2.2c0.8-0.5,1.6-0.9,2.5-1.4s1.9-0.9,2.9-1.4
						s2-1,3-1.4c0.5-0.3,1-0.5,1.5-0.7s1-0.5,1.5-0.6c1.9-0.8,3.7-1.6,5.1-2.4c-9.5,3.2-17.9,7.1-25.9,11.6s-15.5,9.6-23.2,16
						c10.1-8.4,21.2-15.7,33.1-21.7c-1.8,1-3.7,1.9-5.5,2.9s-3.6,2.1-5.5,3.2c-1.8,1-3.6,2.2-5.4,3.4c-1.8,1.2-3.6,2.3-5.3,3.6
						c-7.1,4.9-13.9,10.5-20.3,16.7c-12.9,12.2-23.9,27-32.3,42.9c-3,5.8-6.4,11-9.4,17.3c-0.7,1.6-1.5,3.2-2.2,4.9
						c-0.6,1.7-1.3,3.5-1.9,5.4c-0.3,0.9-0.6,1.9-0.8,2.9c-0.3,1-0.5,2-0.7,3.1c-0.5,2.1-0.9,4.3-1.1,6.6
						c3.1-11.4,7.3-22.5,12.7-33.1s11.9-20.7,19.4-29.9s15.9-17.8,25.1-25.5c9.2-7.6,19.2-14.4,29.7-19.9c-0.1,0.1-0.1,0.1-0.2,0.2
						c9.4-5.1,18.8-9,28.4-12c9.6-3,19.4-5.1,29.5-6.5c-1.6,0.3-3.2,0.5-4.7,0.8c-1.6,0.3-3.1,0.6-4.7,0.9c-3.1,0.5-6,1.3-8.8,1.8
						c1.8-0.4,3.6-0.7,5.5-1.1c1.8-0.3,3.7-0.6,5.5-0.8l2.7-0.4c0.9-0.1,1.8-0.2,2.8-0.3c1.8-0.2,3.7-0.4,5.5-0.6
						c7.4-0.5,14.7-0.8,22.1-0.5c7.3,0.2,14.7,1,21.9,2.1l5.4,1c0.9,0.2,1.8,0.3,2.7,0.5l2.7,0.6c1.8,0.5,3.6,0.8,5.3,1.3l5.3,1.6
						c-10-2.5-20.4-4.2-30.8-5c-10.5-0.8-21.1-0.6-31.8,0.5c-21.2,2.1-42.3,8.4-61.5,18.4s-36.4,23.8-50.2,40.2
						s-24.2,35.4-30.3,55.1c4.4-10.8,9.7-23.1,16.4-34.4c0.8-1.4,1.8-2.8,2.6-4.2c0.5-0.7,0.8-1.4,1.3-2.1c0.5-0.6,0.9-1.3,1.4-1.9
						c0.9-1.3,1.8-2.6,2.7-3.8c0.5-0.6,0.9-1.2,1.4-1.8s1-1.2,1.4-1.8c1-1.2,1.9-2.3,2.9-3.4c1-1.1,1.9-2.1,2.9-3.2
						c1-1,1.9-2,2.9-2.9s1.9-1.8,2.9-2.6c-6.5,6.8-12.5,14-17.8,21.8s-9.9,16-13.8,24.7c-4,8.6-7.1,17.6-9.6,26.8s-4,18.8-4.8,28.4
						c0.1-1.4,0.1-2.9,0.1-4.3c0.1-1.4,0.2-2.8,0.3-4.2c-2.1,11.9-2.3,24.4-1,36.8c1.3,12.4,4.2,24.6,7.9,36c0.3,1,0.6,2.1,1,3.1
						c0.2,0.5,0.3,1,0.5,1.6s0.4,1,0.6,1.5c-0.8-2-1.4-4.1-2.1-6.1c-6.7-21.1-9-43.1-7.1-64.4c-0.3,9.8-0.3,20.2,1,32.5
						c0-0.8-0.1-1.8-0.1-2.7c0-0.5-0.1-0.9-0.1-1.4s0-1,0-1.5c0-2-0.1-4.2-0.1-6.4s0.1-4.5,0.1-6.9c0-0.6,0-1.2,0-1.8
						c0.1-0.6,0.1-1.2,0.1-1.8c0.1-1.2,0.1-2.4,0.2-3.6c0.5-12.6,2.3-25.2,5.7-37.2c-4.9,18.7-6,38.1-3.7,55.2
						c-0.1-1.6-0.2-3.2-0.2-4.9s0-3.2,0-4.9v-2.5c0-0.8,0.1-1.6,0.1-2.5c0.1-1.6,0.1-3.2,0.2-4.9c0-1.6,0.3-3.2,0.4-4.9
						s0.3-3.2,0.5-4.9l0.7-4.9l0.3-2.5c0.1-0.8,0.3-1.6,0.5-2.4l0.9-4.9l0.3-1.2l0.3-1.2l0.6-2.4c0.4-1.6,0.7-3.2,1.2-4.8l1.4-4.7
						c0.3-0.8,0.5-1.6,0.7-2.3l0.8-2.3c0.5-1.6,1.1-3.1,1.6-4.6c0.6-1.5,1.2-3.1,1.8-4.5c0.6-1.5,1.2-3,1.9-4.5
						c-0.8,1.6-1.4,3.3-2,4.9l-1,2.5l-0.5,1.2l-0.4,1.3l-1.7,5.1l-0.4,1.3l-0.3,1.3l-0.7,2.6l-0.7,2.6c-0.1,0.5-0.3,0.8-0.3,1.3
						l-0.3,1.3l-1.2,5.2c-0.2,0.8-0.3,1.8-0.5,2.6l-0.5,2.6c-0.3,1.8-0.6,3.5-0.8,5.3c-3.6,23.5-2.2,48.1,5,71.5
						c-0.3-0.8-0.6-1.8-0.8-2.7c0.5,1.8,1.1,3.5,1.8,5.3c3,9.1,6.8,17.9,11.4,26.4c1.1,1.9,2.2,3.7,3.3,5.5c1.2,1.8,2.4,3.5,3.6,5.3
						l0.9,1.3l1,1.2c0.6,0.8,1.3,1.7,1.9,2.5c0.6,0.8,1.3,1.7,2,2.5l2.1,2.3c0.9,1.1,1.8,2.2,2.7,3.3c-1-1-1.7-1.6-1.8-1.6
						c-0.1,0.1,0.1,0.3,0.3,0.8c0.3,0.5,0.8,1.2,1.6,2.2c6.8,8.8,15.3,16.9,24.9,24.2c0.6,0.5,1.2,0.9,1.8,1.4s1.2,0.8,1.8,1.3
						c1.2,0.8,2.5,1.8,3.8,2.6c1.2,0.9,2.5,1.7,3.8,2.5s2.6,1.7,3.9,2.5c5.3,3.2,10.8,6.4,16.5,9.2c0.8,0.4,1.6,0.8,2.3,1.2
						c0.8,0.4,1.7,0.8,2.6,1.2c1.8,0.7,3.7,1.5,5.8,2.3c2,0.7,4.2,1.4,6.4,2.1c0.6,0.2,1.1,0.3,1.7,0.5c0.6,0.1,1.2,0.3,1.8,0.5
						c1.2,0.3,2.3,0.6,3.5,0.9c2.5,1,3.9,1.1,5.2,1.2c1,0.2,2.1,0.4,3.1,0.6c1,0.2,2.1,0.5,3.1,0.6l3.8,0.6l1.9,0.3
						c0.6,0.1,1.3,0.2,1.9,0.3c2.6,0.3,5.1,0.6,7.7,0.7c-2.5-0.3-5.1-0.6-7.6-0.8c-0.6-0.1-1.3-0.1-1.9-0.3l-1.9-0.3
						c-1.3-0.2-2.6-0.4-3.9-0.6c-1-0.1-1.9-0.4-2.9-0.6c-1-0.2-1.9-0.4-2.9-0.6c0.6,0,1.4,0,2.3,0.1c0.5,0.1,0.9,0.1,1.5,0.2
						c0.5,0.1,1.2,0.2,1.9,0.3c-8.7-1.8-17.3-4.4-25.8-7.7l-3.2-1.3c-1-0.4-2.1-0.8-3.1-1.3c-2.1-1-4.2-1.9-6.2-2.9s-4-2.1-6-3.2
						c-2-1.1-4-2.3-5.9-3.4c-15.7-9.5-29.9-21.6-41.8-35.9c1.6,1.5,3.9,3.7,4.9,4.6l-3.8-3.9c-0.6-0.6-1.2-1.3-1.9-2l-1.8-2
						c-7.4-9.4-13.9-19.5-19.1-30.4c0.8,1.6,1.8,3.1,2.6,4.5s1.7,2.7,2.6,3.9c-8-15-13.9-31.2-16.9-48.1c-0.4-2.1-0.8-4.2-1-6.3
						c-0.3-2.1-0.6-4.2-0.8-6.4l-0.5-6.4c-0.1-1-0.1-2.1-0.1-3.2l-0.1-3.2c0-1-0.1-2.1-0.1-3.2l0.1-3.2l0.1-3.2c0-0.5,0-1.1,0.1-1.6
						l0.1-1.6l0.5-6.4l0.8-6.4l0.2-1.5l0.3-1.5l0.6-3l0.6-3c0.2-1,0.5-1.9,0.7-2.9c0.5-1.9,0.9-3.9,1.5-5.8l1.8-5.8
						c2.5-7.6,5.4-15.1,9-22.1c3.6-7.1,7.6-14,12.1-20.5s9.5-12.6,14.9-18.4c-6.1,6-11.8,12.7-16.9,19.9c-0.6,0.9-1.2,1.8-1.9,2.8
						c-0.6,0.9-1.3,1.8-1.8,2.8c-1.2,1.9-2.3,3.8-3.5,5.8c-1,2-2.1,4-3.2,6c-1,2-1.9,4.1-2.9,6.2c4.8-11.2,10.8-21.8,18-31.7
						c7.2-9.8,15.6-18.8,24.9-26.7l1.8-1.5c0.6-0.5,1.2-1,1.8-1.4l3.6-2.8l0.9-0.7l0.9-0.6l1.9-1.3c1.2-0.8,2.5-1.8,3.8-2.6l3.8-2.5
						c1.3-0.8,2.5-1.6,3.9-2.4c2.7-1.5,5.3-3.1,8-4.4c10.8-5.5,22.3-9.7,34.1-12.5c-2,0.8-4.3,1.8-6.5,2.7c-1.2,0.5-2.3,1-3.4,1.5
						c-1.1,0.5-2.2,1-3.3,1.6c-0.5,0.3-1,0.5-1.6,0.8c-0.5,0.3-1,0.5-1.5,0.8c-1,0.5-1.9,1-2.8,1.6c-0.8,0.5-1.7,1-2.4,1.5
						s-1.4,1-1.9,1.4c0.1,0.1,1.2-0.1,2.4-0.6c1.3-0.4,2.9-0.8,4.2-1.3c2.6-0.8,4.2-1.2,0.1,0.6c-0.9,0.5-1.8,0.8-2.7,1.2
						c-0.5,0.2-0.9,0.4-1.4,0.6c-0.5,0.2-0.8,0.5-1.3,0.6c-1.7,0.8-3.4,1.8-5.1,2.6c-1.6,0.9-3.2,1.8-4.7,2.7
						c-0.8,0.5-1.6,0.8-2.3,1.3s-1.5,0.9-2.2,1.4c-1.4,0.9-2.9,1.8-4.3,2.6c-1.4,0.9-2.7,1.8-4,2.7c-0.6,0.5-1.3,0.8-1.9,1.3
						c-0.6,0.5-1.2,0.9-1.8,1.4c-1.2,0.9-2.3,1.8-3.5,2.6C172,152,166,158.8,163,164.8c-0.2,0.6,1.3-0.3,3.6-1.9
						c1.2-0.8,2.5-1.7,4-2.6c0.7-0.5,1.4-1,2.2-1.5s1.6-0.9,2.3-1.4c1.5-0.9,2.9-1.8,4.2-2.4c1.3-0.6,2.4-1.2,3.2-1.5
						c1.6-0.6,1.8-0.3-0.1,1.6c-3.5,2.9-8.1,7.2-13.2,12.6c-5.1,5.3-10.4,11.9-15.2,19.2c-0.4,0.5-0.8,1-1.1,1.6
						c-0.3,0.5-0.7,1-1,1.6c-0.7,1-1.4,2.1-2.1,3.2c-0.4,0.5-0.7,1.1-1,1.7c-0.3,0.6-0.6,1.2-1,1.7c-0.6,1.2-1.4,2.3-2,3.4
						c-0.4,0.6-0.7,1.7-1.1,3.1c-4.2,8.4-7.5,17-9.8,24.7c-0.3,1-0.5,1.9-0.8,2.9c-0.3,0.9-0.6,1.8-0.8,2.7
						c-0.5,1.8-0.8,3.6-1.2,5.2c-0.2,0.8-0.4,1.6-0.5,2.4c-0.1,0.8-0.3,1.6-0.5,2.3c-0.3,1.4-0.6,2.8-0.8,4
						c-0.3,1.8-0.6,3.6-0.8,5.5c-0.1,0.9-0.3,1.8-0.3,2.7l-0.3,2.7c-0.2,1-0.4,1.8-0.6,2.6c-0.2,0.8-0.4,1.6-0.6,2.1
						c0.1,1.2,0.2,2.3,0.3,3.5s0.1,2.3,0.3,3.5c-0.1,9.8,0.8,19.5,2.7,29c0.2,1.3,0.5,2.7,0.6,4l0.3,2l0.4,1.9
						c0.3,1.3,0.6,2.7,0.8,4l0.2,1l0.3,1l0.5,1.9c0.2-0.2,0.3-1.1,0.8-0.3c0.5,1.4,0.9,2.9,1.4,4.3c0.5,1.4,1.1,2.8,1.6,4.2
						c0.3,0.7,0.5,1.4,0.8,2.1l0.9,2.1l1.8,4.2l2,4l1,2c0.3,0.6,0.7,1.3,1.1,1.9l2.2,3.9c0.8,1.3,1.6,2.5,2.4,3.8
						c0.6,1,1.1,2.1,1.8,3.2c0.6,1,1.2,2,1.7,3s1,1.9,1.6,2.9c0.5,0.9,1,1.8,1.6,2.7c1.2,1.1,2.5,2.5,4.2,4c0.8,0.7,1.6,1.6,2.3,2.4
						c0.4,0.4,0.8,0.8,1.2,1.3c0.5,0.4,0.9,0.8,1.4,1.3c1.8,1.8,3.6,3.6,5.7,5.5c1,1,2.1,1.9,3.1,2.9c1.1,0.9,2.2,1.9,3.3,2.9
						c8.9,7.8,19.6,14.9,29.1,19.5v-0.1c9.4,4.7,19.4,8.6,29.9,11.2c1.7,0.6,3.2,1.2,4.7,1.9c1.4,0.1,2.7,0.2,3.9,0.4
						c1.2,0.1,2.2,0.3,2.9,0.3c0.5,0.1,1,0.3,1.6,0.3c0.5,0.1,1,0.2,1.6,0.3c1,0.2,2,0.3,3,0.5s1.9,0.4,2.9,0.5s1.9,0.3,2.9,0.4
						c1,0.1,1.9,0.3,2.8,0.4c0.5,0.1,0.9,0.1,1.4,0.2c0.5,0.1,0.9,0.1,1.4,0.1c1.9,0.2,3.7,0.3,5.5,0.5c0.6-0.1,1.6-0.3,2.8-0.6
						s2.5-0.5,3.9-0.5s2.8-0.1,4.2-0.2c1.4-0.1,2.8-0.2,4.2-0.3s2.7-0.3,4-0.5c1.4-0.2,2.7-0.4,4-0.5c1.6-0.3,3.1-0.5,4.7-0.8
						c0.8-0.1,1.6-0.3,2.3-0.4c0.8-0.1,1.6-0.3,2.3-0.5c1.6-0.3,3.1-0.6,4.7-1c1.6-0.4,3.1-0.8,4.6-1.2c5.2-1.4,10.3-3.1,15.3-5
						c0.6-0.2,1.2-0.5,1.9-0.8l1.9-0.8l3.7-1.6l3.6-1.8l1.8-0.8l0.9-0.5l0.9-0.5c9.5-4.9,18.4-10.9,26.6-17.7
						c0.7-0.2,1.1-0.1,1.4,0.1c1.1-1.2,2.5-2.7,4-4c0.7-0.6,1.4-1.4,2.1-1.9c0.6-0.6,1.2-1.3,1.7-1.9c-0.3,0.5-0.5,0.8-0.3,0.9
						c1.6-1.9,2.9-3.3,4-4.5c1.1-1.3,2.1-2.3,3.1-3.3c0.5-0.5,1-1,1.5-1.5s1-1,1.5-1.6c1-1.2,2.3-2.5,3.6-4.2c1.2-1.6,1.9-3.4,3-5
						c0.6-0.8,1.1-1.6,1.7-2.4c1.7-1.9,3.3-3.8,4.7-6c1.4-2.1,2.8-4.2,4-6.6c0.6-1.2,1.2-2.3,1.8-3.4c0.6-1.2,1.1-2.4,1.6-3.6
						c0.5-1.2,1.1-2.5,1.6-3.7c0.5-1.3,1-2.5,1.5-3.9c4.4-10.3,7.9-21.1,9.9-32.2c0.3-2.2,0.7-4.1,1.1-5.7c0.1-0.4,0.2-0.8,0.3-1.2
						c0.1-0.4,0.1-0.8,0.2-1.2c0.1-0.7,0.3-1.4,0.5-2.1c0.3-1.4,0.6-2.7,0.9-4C424.9,275.5,425.1,274.1,425.4,272.6z"/>
					<path id="XMLID_1505_" class="st1" d="M186,387.4c8.1,6.3,16.8,11.7,25.9,16.2c-1.2-0.6-2.5-1.1-3.7-1.7
						c-1.2-0.5-2.4-1.2-3.6-1.8c-1.2-0.6-2.3-1.2-3.5-1.8c-1.1-0.6-2.2-1.3-3.3-1.9c-1.1-0.6-2.2-1.3-3.2-2s-2-1.4-3.1-2.2l-1.5-1.1
						l-0.7-0.6l-0.7-0.6C187.8,389.1,187,388.2,186,387.4z"/>
					<path id="XMLID_1504_" class="st1" d="M188.3,151.5c0.9-0.5,1.8-0.9,2.7-1.4s1.9-0.9,2.9-1.4c2-1,4-2.1,6.2-3.1
						c-21.8,12.6-40.3,31-52.9,53.4h-0.1c0.6-1.1,1.3-2.3,1.9-3.4c0.2-0.3,0.3-0.6,0.5-0.9c0.2-0.3,0.4-0.6,0.6-0.8
						c0.4-0.6,0.8-1.2,1.1-1.8c0.8-1.2,1.5-2.4,2.3-3.6c0.8-1.2,1.7-2.3,2.5-3.5c0.5-0.6,0.8-1.2,1.3-1.8s0.9-1.2,1.4-1.8
						c0.9-1.2,1.9-2.3,2.8-3.4c1-1.1,1.9-2.2,2.9-3.3c0.5-0.6,1-1.1,1.4-1.6c0.5-0.5,1-1,1.5-1.6c1-1,2-2.1,3-3.1s2-1.9,3-2.9
						c1-0.9,1.9-1.9,2.9-2.8c1-0.8,1.9-1.8,2.8-2.6c1.8-1.8,3.5-3.2,5.1-4.6c0.8-0.7,1.4-1.4,2.1-2.1
						C187.1,152.7,187.7,152.1,188.3,151.5z"/>
					<path id="XMLID_1503_" class="st1" d="M165.7,368.5c0.3,0.3,0.8,0.5,1.2,0.8l0.1,0.1C166.5,369.3,166,368.9,165.7,368.5z"/>
					<path id="XMLID_1502_" class="st1" d="M228.2,116.8c0.9-0.3,1.8-0.5,2.6-0.7l-4.9,1.5c-0.4,0.1-0.8,0.3-1.2,0.4l-1.2,0.5
						l-2.4,0.8l-2.4,0.8c-0.4,0.1-0.8,0.3-1.2,0.5l-1.2,0.5l-4.7,1.9C216.4,120.8,222.1,118.6,228.2,116.8z"/>
					<path id="XMLID_1501_" class="st1" d="M301.1,114.3c0.8,0.1,1.8,0.3,2.6,0.5l2.5,0.6c1.7,0.4,3.4,0.7,5.1,1.2l5.1,1.4
						c0.8,0.3,1.7,0.5,2.5,0.7l2.5,0.8c6.7,2.1,13.1,4.8,19.5,7.7c16,8.1,30.1,19.2,41.3,31.6c-5.5-5.5-11.2-10.7-17.4-15.5
						c-6.2-4.7-12.7-9-19.5-12.7C331.5,123.1,316.6,117.5,301.1,114.3z"/>
					<path id="XMLID_1498_" class="st1" d="M232.6,131.2c1.3-0.3,2.5-0.6,3.8-0.8s2.6-0.4,3.9-0.6c2.6-0.5,5.3-0.6,7.9-1
						c-2.6,0.5-5.2,0.8-7.8,1.4c-1.3,0.3-2.6,0.6-3.8,0.8c-1.3,0.3-2.5,0.7-3.8,1C233.6,131.5,232.7,131.4,232.6,131.2z"/>
					<path id="XMLID_1497_" class="st1" d="M177.4,143c1.1-0.8,2.3-1.6,3.4-2.5c-2.9,2.2-5.5,4.7-8.1,7
						C173.6,146.6,175.8,144.5,177.4,143z"/>
					<path id="XMLID_1496_" class="st1" d="M288.2,128.5c-1.9-0.3-3.8-0.5-5.7-0.6c-1-0.1-1.9-0.2-2.9-0.3s-1.9-0.1-2.9-0.2
						c2.3-0.1,4.5-0.1,6.9-0.3c0.6,0.3,1.3,0.5,2.1,0.6C286.4,128,287.3,128.3,288.2,128.5z"/>
					<path id="XMLID_1495_" class="st1" d="M344.4,147.6c1.1,0.6,2.2,1.4,3.3,2.1c1.1,0.7,2.2,1.4,3.2,2.1s2.1,1.5,3.1,2.3
						s2,1.4,3,2.3c-4.9-3.6-10.1-7.1-15.5-10C342.8,146.8,343.9,147.1,344.4,147.6z"/>
				</g>
			</g>
		</g>
	</g>
	<g id="XMLID_1355_">
		<g id="XMLID_1386_">
			<g id="XMLID_1390_">
				<g id="XMLID_1391_">
					<path id="XMLID_1393_" class="st2" d="M468.6,220.8l0.1,0.6c0.2,0.8,0.4,1.5,0.5,2.3c0.6,1.2,1.3,3.2,1.9,5.7
						c0.1,0.6,0.3,1.3,0.5,2c0.1,0.7,0.3,1.4,0.4,2.2c0.3,1.6,0.5,3.2,0.7,5c0.3-0.1,0.3-0.7,0.9,1.8c0.5,2.8,0.5,4.6,0.6,5.8
						s0.3,1.8,0.4,2.3s0.3,0.9,0.5,1.7c0.1,0.4,0.2,0.9,0.4,1.5c0.1,0.6,0.3,1.4,0.5,2.5c0-0.3-0.1-0.6-0.1-1
						c-0.1-0.3-0.1-0.6-0.1-1c-0.1-0.6-0.2-1.4-0.3-1.9c-0.1-1.2-0.3-2.4-0.2-3c0,0,0.1,1,0.3,2.5s0.5,3.4,0.6,5.4
						c0.4,4,0.7,7.9,0.7,7.9c0.3-2.2,0.6-4,1.2-1.4c0.4-0.8,1,0.1,1.6,1.4c0.6,1.4,1.1,3.2,1.6,4.2c0-1.4,0.1-2.8,0.1-3.8
						c0-1.1,0-1.9,0-2.5c0.2,0.2,0.4,1,0.6,2.1c0.2,1.2,0.3,2.7,0.3,4.4c0.1-0.3,0.2-0.6,0.3-1.1c-0.1,0.5-0.2,0.8-0.3,1.1
						c0.1,2.3,0.1,4.8,0.2,7.1c0.1-1.3,0.2-2.6,0.4-1.9c0,0-0.1-2.5-0.1-4.9c0-1.2-0.1-2.5-0.1-3.4s-0.1-1.6-0.1-1.6
						c0.1-0.3,0.1,0,0.3,0.6l-0.4-2.5l-0.1,1.9c-0.1,0.7-0.3-0.6-0.6-1.9c-0.3-2.6-0.1-3.2-0.1-4.5c0,0-0.2-1.3-0.4-2.6
						c-0.1-0.6-0.2-1.3-0.3-1.8c-0.1-0.5-0.2-0.8-0.2-0.8c-0.7-1.9,0.7,13.6-0.6,5.3v-2.6c-0.1-1-0.3-2-0.5-3.1
						c-0.2-1-0.3-2.1-0.5-3.2c-0.3-2.1-0.7-4-1.1-5.3c0.1-1.9-0.6-4.7-1.1-6.9c-0.5-2.3-1-4.2-0.5-4.6c-0.3-1.8-0.8-3.7-1.2-5.7
						c-0.5-1.9-0.8-4-1.4-5.9c-1.2-4-2.3-8.2-3.7-12.2c-0.7-2-1.4-4.1-2.1-6.1c-0.8-2-1.5-4-2.2-5.9c-0.3-1-0.7-1.9-1-2.9
						s-0.8-1.9-1.1-2.8c-0.7-1.9-1.4-3.6-2.1-5.5c-1.8-2.1-3.1-1.4-6.9-6.7c-0.5-1.2-1.2-3-0.8-2.5c0,0-0.1-0.3-0.4-0.6
						s-0.6-0.8-0.9-1.3c-0.6-0.9-1.3-1.8-1.3-1.8c0.6,1.1,1.4,2.3,2,3.5s1,2.2,1.2,2.8c-3.5-6.1,0.9,3.1,0.2,2.8
						c0,0-1.2-2.1-2.3-4.2c-0.6-1-1.2-2-1.7-2.8s-0.8-1.2-0.8-1.2l0.4,1c0.5,0.9,1,1.9,1.6,2.8l1.4,2.9l2.8,5.8l2.5,5.9l1.2,2.9
						c0.4,1,0.7,2,1.1,3l2.1,6c0.4,1,0.6,2,1,3.1l0.9,3.1l0.9,3.1l0.5,1.5c0.1,0.5,0.3,1,0.4,1.6l1.6,6.2L468.6,220.8z"/>
					<path id="XMLID_1392_" class="st2" d="M249,54.3l0.3,0.8c-1.2,0.1-2.4,0.2-3.6,0.3c-1.2,0.2-2.4,0.3-3.6,0.5
						c-2.4,0.3-4.8,0.6-7.3,1c-2.4,0.5-4.8,0.9-7.3,1.4c-1.2,0.3-2.4,0.5-3.6,0.7c-1.2,0.3-2.4,0.6-3.6,0.8
						c-2.4,0.6-4.9,1.2-7.3,1.8c-2.4,0.7-4.9,1.4-7.3,2.1c-2.5,0.6-4.9,1.6-7.3,2.4c-1.2,0.4-2.4,0.8-3.6,1.2l-1.8,0.6l-1.8,0.7
						c-2.4,1-4.8,1.9-7.2,2.9l-0.9,0.4l-0.9,0.4l-1.8,0.8c-1.2,0.5-2.4,1.1-3.6,1.6c-1.2,0.5-2.4,1.1-3.6,1.6
						c-1.2,0.6-2.3,1.2-3.5,1.8c-1.2,0.6-2.3,1.2-3.5,1.8c-1.2,0.6-2.4,1.2-3.5,1.9c-2.3,1.4-4.6,2.7-6.9,4
						c-1.2,0.6-2.3,1.4-3.4,2.1c-1.1,0.7-2.3,1.4-3.4,2.2c-1.1,0.7-2.3,1.4-3.4,2.2s-2.2,1.6-3.3,2.3c-1.1,0.8-2.2,1.6-3.3,2.4
						l-1.7,1.2l-1.6,1.3c-2.1,1.7-4.4,3.4-6.5,5.1c-2.1,1.8-4.2,3.6-6.3,5.4l-1.6,1.4c-0.5,0.5-1,1-1.5,1.4c-1,1-2,1.9-3.1,2.9
						c-1,1-2,1.9-3.1,2.9c-1,1-1.9,2-2.9,3.1c-1,1-1.9,2-2.9,3.1l-1.5,1.5c-0.5,0.5-0.9,1-1.4,1.6c-1.9,2.1-3.7,4.3-5.6,6.4
						c-1.8,2.2-3.5,4.4-5.3,6.7l-1.3,1.7c-0.5,0.6-0.8,1.2-1.2,1.8c-0.8,1.2-1.7,2.3-2.5,3.5s-1.7,2.3-2.5,3.5s-1.6,2.4-2.3,3.6
						c-0.8,1.2-1.6,2.4-2.3,3.6l-1.2,1.8l-1.1,1.9c-1.4,2.5-2.9,5-4.4,7.5c-1.4,2.6-2.7,5.1-4,7.7c-5.1,10.5-9.5,21.4-13.1,32.7
						c-0.8,2.9-1.6,5.7-2.5,8.5c-0.7,2.9-1.4,5.8-2.1,8.6l-0.5,2.1c-0.1,0.7-0.3,1.5-0.4,2.2l-0.8,4.4l-0.8,4.4l-0.6,4.4l-0.6,4.5
						l-0.3,2.2l-0.2,2.3c-0.3,3-0.5,6-0.7,9c-0.1,3-0.2,6-0.3,9l-0.1,2.3l0.1,2.3l0.1,4.5l0.1,4.5l0.3,4.5l0.3,4.5l0.1,2.3l0.3,2.3
						c0.4,3,0.7,6,1.1,9c0.5,3,1,6,1.6,9c2.3,11.9,5.6,23.7,9.8,35.1c4.2,11.4,9.5,22.5,15.5,33c6.1,10.5,13,20.6,20.7,29.9
						c7.7,9.4,16.2,18,25.3,25.9c2.3,1.9,4.5,4,6.9,5.8l3.6,2.8c1.2,0.9,2.3,1.9,3.6,2.7c2.5,1.8,4.9,3.4,7.3,5.2
						c2.5,1.6,5.1,3.2,7.5,4.8c0,0-1.4,0.1-2.9,0.1c-1.4,0.1-2.9,0.1-2.9,0.1c11.1,6.6,23.1,12.6,35.7,17.4c12.6,4.9,25.8,8.5,39,11
						s26.6,3.6,39.6,3.6c1.6,0,3.2-0.1,4.8-0.1s3.2,0,4.8-0.1c3.2-0.2,6.3-0.4,9.4-0.6c3.1-0.4,6.2-0.7,9.2-1.1
						c0.8-0.1,1.5-0.2,2.3-0.3c0.7-0.1,1.5-0.3,2.2-0.4c1.5-0.3,2.9-0.5,4.4-0.8c0,0-1.2,0.1-2.9,0.3c-1.7,0.1-4,0.5-6.3,0.5
						c-2.3,0.1-4.6,0.2-6.3,0.3c-0.8,0.1-1.6,0.1-2.1,0.1s-0.8,0-0.8,0c2.1-0.4,4.5-0.8,7.3-1.2c1.4-0.2,2.9-0.4,4.4-0.6
						c1.6-0.3,3.1-0.6,4.8-0.9s3.4-0.6,5.1-0.9c1.8-0.4,3.6-0.8,5.4-1.2c1.8-0.4,3.7-0.8,5.7-1.2c1.9-0.5,3.8-1,5.7-1.5
						c1-0.3,1.9-0.5,2.9-0.8l1.5-0.4c0.5-0.1,1-0.3,1.4-0.5c1.9-0.6,3.9-1.2,5.8-1.8c1-0.3,1.9-0.6,2.9-0.9c1-0.3,1.9-0.6,2.9-1
						c1.9-0.6,3.8-1.4,5.7-2c1.9-0.6,3.6-1.4,5.5-2.1c1.8-0.7,3.6-1.4,5.3-2.1c3.4-1.4,6.6-2.9,9.6-4.2l-2,1.8c-2,1-3.8,1.8-5.3,2.5
						c-0.4,0.2-0.8,0.3-1.1,0.5c-0.4,0.1-0.7,0.3-1,0.5c-0.6,0.3-1.3,0.5-1.8,0.8c-2.2,0.9-3.6,1.5-4.4,1.9c-1.6,0.7-0.6,0.5,1-0.1
						c3.2-0.9,9-2.7,2.6,1.2c0,0-1.4,0.6-2.9,1.4c-0.7,0.3-1.4,0.6-1.9,0.9c-0.3,0.1-0.5,0.2-0.6,0.3s-0.3,0.1-0.3,0.1
						s0.3-0.1,0.6-0.1s0.8-0.2,1.2-0.3c0.9-0.3,1.8-0.5,1.8-0.5l5.7-2.7c-0.5,0.7,0.3,1.1-5.3,3.5c0,0,2-0.8,4-1.5
						c1-0.4,2-0.8,2.7-1c0.4-0.1,0.6-0.3,0.9-0.4c0.2-0.1,0.3-0.1,0.3-0.1c4.4-1.4,7.8-2.2,10.3-2.9c2.5-0.6,4.3-0.9,5.5-0.9
						c2.3,0.1,2.4,1.4,1.9,3.1c2.1-1.3,1.8-1.9,3.2-3.3c0.7-0.7,1.9-1.7,4-3.1c1-0.7,2.4-1.5,4-2.4c0.4-0.3,0.8-0.5,1.3-0.7
						c0.5-0.3,0.9-0.5,1.4-0.8c1-0.6,2-1.2,3.1-1.8l-1.8,2.2c0,0,1.2-0.8,2.9-2.1c1.8-1.3,4-2.9,6.2-4.8c2.2-1.8,4.4-3.6,6.1-5
						c1.6-1.4,2.7-2.4,2.7-2.4s2.1-1.4,4.4-2.7c1.1-0.6,2.2-1.4,2.9-1.9c0.8-0.5,1.3-0.9,1.3-0.9c1.4-1.4,2.8-2.7,4-4
						c0.6-0.6,1.2-1.2,1.8-1.8c0.6-0.6,1.2-1.2,1.8-1.9c1.2-1.2,2.3-2.4,3.6-3.7c0.6-0.6,1.3-1.2,2-1.9c0.6-0.6,1.4-1.4,2.1-2.1
						l0.5-3.1c0.8-0.8,1.6-1.7,2.5-2.5c0.4-0.4,0.8-0.8,1.2-1.3c0.4-0.5,0.8-0.9,1.2-1.3c1.6-1.8,3.2-3.6,4.8-5.5
						c0.4-0.5,0.8-0.9,1.2-1.4c0.4-0.5,0.8-1,1.2-1.4c0.8-1,1.6-1.9,2.3-2.9c1.5-2,3.1-3.9,4.5-6s2.9-4.2,4.4-6.3
						c1.4-2.1,2.7-4.4,4.2-6.6c0.7-1.1,1.4-2.2,2.1-3.3c0.6-1.2,1.3-2.3,1.9-3.4l1.9-3.4c0.6-1.2,1.3-2.3,1.9-3.4
						c1.2-2.3,2.3-4.7,3.5-7l0.8-1.8l0.8-1.8c0.5-1.2,1-2.4,1.6-3.6c2.2-4.7,4-9.6,5.8-14.4c0.8-2.4,1.7-4.8,2.5-7.2
						c0.4-1.2,0.8-2.4,1.2-3.6c0.3-1.2,0.7-2.4,1-3.6c0.7-2.3,1.4-4.7,2.1-7c0.6-2.3,1.2-4.6,1.8-6.9c0-1,0.1-2.3,0.4-3.6
						c0.2-1.4,0.4-2.9,0.6-4.5c0.3-1.7,0.6-3.4,1-5.4c0.1-0.5,0.2-1,0.3-1.4c0.1-0.5,0.1-1,0.2-1.5c0.1-1,0.3-2.1,0.5-3.1
						c0.3-2.1,0.6-4.4,1-6.7c0.2-2.3,0.4-4.7,0.6-7.2c0.1-1.2,0.2-2.5,0.3-3.8c0-1.2,0-2.5,0-3.8c0-2.6-0.1-5.2-0.2-7.8l-2.1,8.9
						c-0.1,0.7-0.2,1.4-0.3,2.1c-0.1,0.8-0.3,1.6-0.4,2.3c-0.3,1.6-0.5,3.3-0.7,5.1c-0.1,0.9-0.3,1.8-0.3,2.8
						c-0.1,0.5-0.1,1-0.2,1.4c-0.1,0.5-0.2,1-0.3,1.4c-0.3,1.9-0.6,4-1,6.1c-0.2,1-0.3,2.1-0.5,3.2c-0.2,1.1-0.5,2.2-0.6,3.3
						c-0.5,2.2-0.9,4.5-1.4,6.9c-0.5,2.3-1.1,4.7-1.7,7.1c-0.3,1.2-0.6,2.4-0.8,3.6c-0.3,1.2-0.7,2.4-1,3.6
						c-0.7,2.4-1.4,4.9-2.1,7.3c-0.8,2.5-1.7,4.9-2.5,7.3l-0.6,1.8l-0.3,0.9l-0.4,0.9c-0.5,1.2-1,2.4-1.4,3.6s-1,2.4-1.4,3.6
						l-0.7,1.8l-0.8,1.8c-1,2.3-2.1,4.7-3.2,6.9c-0.5,1.2-1.1,2.3-1.7,3.4c-0.6,1.1-1.2,2.2-1.7,3.2c-0.6,1.1-1.2,2.1-1.7,3.2
						c-0.6,1-1.2,2.1-1.8,3.1c-1.2,2-2.4,4-3.6,5.9l-0.1-1.8c3.5-6.6,5.4-11.8,9.7-19.9l-0.6-2.9c-0.7,0.7-1.5,1.6-2.3,2.5
						c-0.8,1-1.5,2.1-2.3,3.2c-1.6,2.3-3.2,5.1-4.9,8.1c-0.9,1.4-1.8,3-2.7,4.5c-0.5,0.8-0.9,1.6-1.4,2.4c-0.5,0.8-0.9,1.6-1.4,2.5
						c-1,1.6-1.9,3.2-2.9,4.9c-0.5,0.8-1,1.7-1.4,2.5c-0.5,0.8-1,1.6-1.5,2.5c-1,1.6-2,3.3-3.1,4.9c-0.5,0.8-1,1.6-1.5,2.4
						c-0.5,0.8-1,1.6-1.6,2.3c-2.1,3.1-4,6.1-6,8.7c-1,1.3-1.9,2.6-2.9,3.8c-0.5,0.6-0.9,1.2-1.3,1.7c-0.5,0.5-0.9,1-1.3,1.5
						c-1.7,1.9-3.2,3.5-4.4,4.6c-0.6,0.6-1.2,1.1-1.8,1.6c-0.6,0.5-1,0.8-1.5,1.2c-0.9,0.7-1.7,1.3-2.2,1.7c-1.2,0.8-1.7,1-1.8,0.8
						c-0.1-0.5,1.5-2.5,3.5-4.9c0.5-0.6,1-1.2,1.5-1.8s1-1.2,1.4-1.8c0.9-1.2,1.8-2.3,2.4-3c1.2-1.6,1.4-1.8-0.8,0.5
						c2.4-2.9,3.6-4.9,4.4-6c0.6-1.2,0.6-1.6,0.1-1.3c-0.6,0.3-1.7,1.1-3.1,2.4c-0.7,0.6-1.6,1.4-2.5,2.1c-0.9,0.8-1.9,1.7-3,2.6
						c-1.1,0.9-2.1,1.9-3.4,2.9c-1.2,1-2.4,1.9-3.7,3c-1.2,1-2.5,2-3.8,3.1c-1.3,1-2.6,1.9-3.8,2.9c-1.2,0.9-2.5,1.8-3.6,2.7
						c-1.2,0.8-2.3,1.6-3.4,2.3c-2.1,1.4-4,2.5-5.3,3.2c-7.4,4.2-16.7,9.7-27.7,15.2s-23.6,10.7-37,14.7s-27.4,6.8-40.9,8.1
						c-1.7,0.1-3.4,0.3-5.1,0.5c-0.8,0.1-1.7,0.1-2.5,0.2c-0.8,0-1.6,0.1-2.5,0.1c-1.6,0.1-3.2,0.1-4.9,0.2
						c-1.6,0.1-3.2,0.1-4.8,0.1c-3.1-0.1-6.2-0.1-9.2-0.2c-3-0.2-5.8-0.4-8.6-0.6c-9.2-0.5-18.8-1.4-28.5-3.5
						c-1.2-0.3-2.5-0.5-3.6-0.7c-1.2-0.3-2.4-0.6-3.6-0.9c-1.2-0.3-2.5-0.6-3.6-1c-1.2-0.3-2.5-0.6-3.6-1c-2.4-0.8-4.9-1.6-7.3-2.3
						c-1.2-0.4-2.4-0.8-3.6-1.3s-2.4-0.9-3.6-1.4c-1.2-0.5-2.5-0.9-3.6-1.4c-1.2-0.5-2.4-1-3.6-1.6c-1.2-0.5-2.4-1-3.6-1.6
						c-0.6-0.3-1.2-0.5-1.8-0.8l-1.8-0.9c-2.3-1.2-4.7-2.4-7.1-3.6c-2.3-1.3-4.6-2.7-6.9-4c-9.1-5.5-17.8-11.8-26-18.6
						c-8.1-6.9-15.6-14.5-22.4-22.3c-1.7-2-3.3-4-5-6c-1.6-2.1-3.1-4.1-4.7-6.2l-1.2-1.5l-1.1-1.6c-0.7-1-1.4-2.1-2.1-3.1
						c-0.7-1-1.4-2.1-2.1-3.1c-0.7-1-1.3-2.1-2-3.2c-10.7-16.9-18.1-34.4-23.3-50.6c-0.6-1.9-1.1-4-1.8-6.1c-0.3-1-0.6-2.1-1-3.2
						l-0.3-0.8l-0.2-0.8c-0.1-0.5-0.3-1.1-0.5-1.7c-0.6-2.2-1.2-4.5-1.8-6.8s-1-4.7-1.6-7.1c-0.3-1.2-0.6-2.4-0.8-3.6
						c-0.2-1.2-0.5-2.5-0.6-3.7s-0.5-2.5-0.6-3.7s-0.5-2.5-0.6-3.8c-0.3-2.5-0.6-5.1-1-7.5c-0.1-0.6-0.2-1.2-0.3-1.9l-0.1-1.9
						c-0.1-1.2-0.2-2.5-0.3-3.8c-0.5-5-0.4-9.9-0.4-14.7c0-0.6,0-1.2,0.1-1.8s0.1-1.2,0.1-1.8c0.1-1.2,0.1-2.3,0.2-3.4
						c0.2-2.3,0.3-4.4,0.6-6.6c0.6-4.2,1.2-8.1,2.3-11.5c0.5-1.7,1-3.3,1.5-4.8c0.3-0.7,0.5-1.4,0.8-2.1c0.3-0.6,0.6-1.3,0.9-1.9
						c0,0,0.3-0.9,0.6-2.5c0.2-0.8,0.5-1.8,0.7-2.9c0.1-0.6,0.3-1.2,0.5-1.8s0.4-1.3,0.6-1.9c0.4-1.4,0.8-2.9,1.4-4.4
						c0.5-1.6,0.9-3.2,1.6-4.9c0.6-1.7,1.2-3.4,1.9-5.2c0.3-0.9,0.6-1.8,1-2.7s0.7-1.8,1.1-2.7c0.7-1.8,1.5-3.5,2.2-5.3
						c0.2-0.5,0.4-0.8,0.5-1.3c0.2-0.5,0.4-0.8,0.6-1.2c0.4-0.8,0.8-1.6,1.2-2.5c0.8-1.6,1.5-3.2,2.2-4.7c0.3-0.8,0.7-1.4,1.1-2.1
						c0.4-0.6,0.7-1.4,1-1.9c0.6-1.2,1.3-2.4,1.8-3.4c0.6-1,1-1.9,1.4-2.7c0.8-1.4,1.4-2.3,1.4-2.3l0.2,1.6
						c7.3-12.9,16-25.3,26-36.9l0.9-1.1l1-1l1.9-2.1c1.3-1.4,2.6-2.9,3.9-4.2l4.1-4c1.4-1.4,2.7-2.7,4.2-4c2.9-2.5,5.7-5.2,8.7-7.6
						l4.5-3.6c1.6-1.2,3.1-2.3,4.6-3.4c12.3-9.2,25.7-16.9,39.4-22.9s27.7-10.3,41.4-12.9c1.5-0.3,2.9-0.6,4.3-0.8
						c0.3-0.1,0.7-0.1,1-0.2s0.6-0.1,1-0.1c0.6-0.1,1.3-0.2,1.9-0.3c2.5-0.4,4.9-0.8,6.9-1.2c4.3-0.6,7.9-1.1,11-1.5
						c3.2-0.3,5.9-0.4,8.6-0.3c0.6,0,1.3,0.1,1.9,0.1c0.6,0.1,1.3,0.2,1.9,0.3c1.3,0.3,2.7,0.5,4,0.9c12.1,0.8,24.7,2.3,37.3,4.9
						s25.3,6.3,37.6,11.1c12.3,4.8,24.1,10.8,34.9,17.7c10.8,6.9,20.8,14.7,29.4,23.1c0.5-0.8,6,3.2-0.1-3.3c-1.2-1-2.3-2.1-3.5-3.1
						s-2.4-2-3.6-3.1c-1.2-1-2.4-2.1-3.6-3.1l-0.9-0.8l-0.9-0.7c-0.6-0.5-1.2-1-1.8-1.4c-4.7-4-9.4-7.5-13.5-10.8
						c-8.2-6.3-14.2-10.8-14-12.1c0,0,2,1.2,4,2.5c1,0.6,2,1.2,2.8,1.7s1.2,0.8,1.2,0.8s-0.2-0.2-0.6-0.5s-0.9-0.6-1.6-1.2
						c-1.3-1-3-2.2-4.7-3.4c-0.8-0.6-1.7-1.3-2.5-1.8c-0.8-0.6-1.6-1-2.3-1.5c-1.3-0.9-2.2-1.5-2.2-1.5s-0.6-0.3-1.6-0.6
						c-0.5-0.2-1-0.5-1.6-0.7c-0.6-0.3-1.2-0.5-1.9-0.7c-2.5-1-5.1-1.9-5.1-1.9c-2.3-1.7-3.2-2.6-3.2-3.1c-2.1-1-4.2-1.9-6.3-2.9
						c-1-0.5-2.1-1-3.1-1.4c-1-0.5-2.1-0.9-3.1-1.3c-2.1-0.9-4.1-1.8-6.2-2.7c-0.5-0.3-1-0.5-1.6-0.6l-1.6-0.6l-3.1-1.2
						c-1-0.4-2.1-0.8-3.1-1.2c-0.5-0.2-1-0.4-1.6-0.6l-1.6-0.5c-2.1-0.7-4.4-1.4-6.6-2.1c-2.2-0.8-4.5-1.3-6.8-1.9
						c-1.2-0.3-2.3-0.6-3.5-0.9s-2.3-0.6-3.6-0.8c-1.8-0.1-3.5-0.3-5.3-0.5c-0.9-0.1-1.8-0.2-2.7-0.3c-0.9-0.1-1.9-0.2-2.8-0.3
						c-1.9-0.1-3.8-0.3-5.8-0.3c-1-0.1-2-0.1-3.1-0.2c-0.5-0.1-1-0.1-1.6-0.1c-0.5,0-1,0-1.6-0.1c-2.1-0.1-4.3-0.1-6.6-0.3
						c-1.1-0.1-2.3-0.1-3.4-0.1s-2.3,0-3.6,0c-2.4,0-4.9-0.1-7.5-0.1C254.4,54.1,251.7,54.2,249,54.3z"/>
				</g>
			</g>
		</g>
	</g>
	<g id="XMLID_1359_">
		<g id="XMLID_1394_">
			<g id="XMLID_1398_">
				<path id="XMLID_1399_" class="st4" d="M505.8,217.9l-0.4-2.4c-0.1-0.8-0.3-1.6-0.5-2.4c-0.3-1.6-0.6-3.2-1-4.8
					c-0.3-1.6-0.6-3.2-1-4.8s-0.8-3.2-1.2-4.7c-7.6-29.1-20.8-56.8-39-81.2c-18.1-24.5-41-45.7-67.5-62
					c-26.4-16.4-56.4-27.9-88.2-33.1c-31.8-5.3-65.3-4.5-98.1,3.2c-2.9,0.6-5.7,1.4-8.6,2.2c-2.9,0.8-5.8,1.5-8.6,2.5
					c-2.9,0.9-5.7,1.9-8.6,2.8c-2.9,1.1-5.7,2.1-8.5,3.2c-2.9,1-5.7,2.3-8.4,3.6c-1.4,0.6-2.8,1.2-4.2,1.9l-1,0.5l-1,0.5l-2.1,1
					c-1.4,0.7-2.7,1.4-4.2,2.1l-2.1,1c-0.7,0.3-1.4,0.7-2.1,1.1c-2.7,1.6-5.4,3.1-8.1,4.6c-10.7,6.4-21,13.6-30.8,21.6
					c-9.7,8.1-18.8,17-27.3,26.4c-8.5,9.4-16.1,19.7-22.9,30.3c-3.5,5.3-6.6,10.8-9.6,16.2c-1.4,2.8-2.9,5.6-4.3,8.4
					c-0.7,1.4-1.4,2.8-2,4.2s-1.3,2.9-1.9,4.3c-0.6,1.4-1.3,2.9-1.9,4.3s-1.1,2.9-1.7,4.4s-1.1,2.9-1.7,4.4l-0.8,2.1l-0.7,2.2
					c-1,2.9-1.9,5.8-2.9,8.8c-0.9,2.9-1.7,5.9-2.5,8.8c-3.1,11.8-5.6,23.6-6.9,35.4l0.7-5.2l0.3-2.6l0.5-2.6l1-5.2l0.5-2.6
					c0.2-0.8,0.3-1.8,0.5-2.6c0.8-3.4,1.6-6.8,2.4-10.3c0.2-0.8,0.5-1.7,0.7-2.5l0.7-2.5l1.5-5.1c4.2-13.5,9.4-26.6,15.8-39.3
					l2.5-4.7l1.2-2.3l1.4-2.3l2.7-4.6l1.4-2.3l0.6-1.2l0.7-1.1c1.9-3,3.8-6,5.8-9c2.1-2.9,4.2-5.8,6.2-8.6
					c8.5-11.4,18.1-22,28.4-31.8s21.6-18.6,33.4-26.5c3-1.9,6-3.8,9-5.7l9.3-5.3c3.2-1.6,6.4-3.2,9.5-4.9c1.6-0.8,3.2-1.5,4.9-2.3
					l4.9-2.2c13.1-5.7,26.6-10.1,40.5-13.4l5.2-1.2l2.6-0.6c0.8-0.2,1.8-0.3,2.6-0.5c3.5-0.6,7-1.2,10.5-1.8l10.6-1.3
					c0.9-0.1,1.8-0.2,2.7-0.3l2.7-0.2l5.3-0.4c14.2-0.8,28.4-0.4,42.4,1.2c3.5,0.5,7,0.9,10.5,1.4c3.4,0.6,6.9,1.3,10.4,1.9
					c6.9,1.5,13.8,3.1,20.5,5.2c26.9,8.1,52.3,20.7,74.6,37.3c11.1,8.2,21.5,17.4,31,27.3l3.5,3.8l1.8,1.9l0.8,0.9l0.8,1
					c2.2,2.6,4.4,5.2,6.6,7.9c2.1,2.7,4.2,5.4,6.2,8.1c1,1.3,2,2.8,3,4.2l2.9,4.2c15.1,22.5,26.4,47.3,32.9,73
					c-3.4-10.1-8-21-13.6-32.3c-5.6-11.4-12.2-23.4-20.5-35.6c-9.8-14.7-21.2-28.4-34-40.6l-2.4-2.3l-1.2-1.2l-1.2-1.1l-5-4.4
					l-2.5-2.1l-2.6-2.1l-5.2-4.1c-0.5-0.3-0.8-0.7-1.3-1l-1.4-1l-2.7-1.9l-5.3-3.8l-5.5-3.6l-2.8-1.8c-0.5-0.3-0.9-0.6-1.4-0.9
					l-1.4-0.8c-30.1-18.1-64-29.5-98.7-33.1c0.1-0.6,0.2-1.8,0.3-2.3c-3.1-0.2-6.2-0.4-9.4-0.6l-2.3-0.1l-2.3-0.1l-4.7-0.1l-4.7-0.1
					c-0.8-0.1-1.6,0-2.3,0.1l-2.3,0.1c-3.1,0.1-6.2,0.1-9.3,0.3c-12.4,0.8-24.6,2.5-36.7,4.9c-3,0.7-6,1.4-9,2.1
					c-1.5,0.3-3,0.8-4.4,1.2l-4.4,1.2l-4.4,1.2l-4.4,1.5l-4.4,1.5l-2.1,0.7c-0.7,0.3-1.4,0.6-2.1,0.8c-2.9,1.1-5.7,2.2-8.5,3.4
					c-2.8,1.2-5.6,2.5-8.4,3.7c-2.8,1.2-5.5,2.7-8.2,4c-2.7,1.4-5.5,2.7-8.1,4.3c-10.7,5.8-20.8,12.7-30.4,20.1l-3.6,2.8l-1.8,1.4
					l-1.8,1.5l-6.9,5.9c-4.4,4.2-8.9,8.2-13.1,12.7l-3.2,3.2c-0.5,0.5-1,1.1-1.6,1.7l-1.5,1.7l-3,3.4l-1.5,1.7l-0.8,0.8l-0.7,0.9
					l-5.7,7.1c-1,1.2-1.8,2.4-2.7,3.6l-2.7,3.7c-0.8,1.2-1.8,2.5-2.7,3.7l-2.5,3.8l-2.5,3.8l-1.2,1.9l-1.2,2.2l-4.5,7.9l-4.2,8.1
					c-1.4,2.7-2.7,5.5-3.9,8.2l-1.9,4.2l-0.5,1l-0.5,1l-0.8,2.1c-1.1,2.8-2.3,5.6-3.4,8.4l-3,8.6l-0.7,2.1l-0.6,2.2l-1.2,4.4
					l-1.3,4.4c-0.4,1.4-0.7,2.9-1,4.4l-1,4.4l-0.5,2.2c-0.2,0.7-0.3,1.5-0.5,2.2l-1.6,9c-0.1,0.8-0.3,1.5-0.4,2.3l-0.3,2.3l-0.6,4.5
					l-0.6,4.5c-0.2,1.5-0.3,3.1-0.4,4.5c-0.2,3.1-0.5,6-0.7,9.1c-0.1,3.1-0.2,6.1-0.3,9.2l-0.1,2.3c0,0.8,0,1.5,0,2.3l0.1,4.5
					c0.1,3.1,0.1,6.1,0.4,9.2c0.3,3.1,0.5,6.1,0.7,9.2c0.4,3.1,0.8,6,1.2,9.1l0.3,2.3c0.1,0.4,0.1,0.8,0.1,1.2l0.2,1.1l0.8,4.5
					c0.6,3,1,6,1.8,9c0.7,3,1.4,6,2.1,9c0.8,2.9,1.7,5.9,2.5,8.8l0.6,2.2c0.2,0.7,0.5,1.4,0.7,2.2l1.5,4.4l1.5,4.4
					c0.3,0.7,0.5,1.4,0.8,2.1l0.8,2.1l1.7,4.3l0.8,2.1l0.5,1.1l0.5,1c1.3,2.8,2.6,5.6,3.8,8.4c5.5,11.1,11.7,21.8,18.7,32.1
					c7.1,10.2,15.1,19.8,23.7,28.9c-2.3-2.7-2.7-3.4-2.3-3.2c0.2,0.1,0.6,0.3,1,0.6s0.8,0.6,1.2,0.8c0.3,0.3,0.6,0.7,1,1
					c-0.3-0.3-0.6-0.6-1-1c0.6,0.4,0.8,0.4-0.3-0.8s-3.1-3.8-7.1-8.4c4.1,4.7,6.1,7.2,7.1,8.4s0.8,1.2,0.3,0.8
					c-8.2-9-15.8-18.6-22.7-28.6c-6.8-10.1-12.7-20.7-18-31.5c-1.2-2.7-2.5-5.5-3.8-8.2c-0.1-0.3-0.3-0.7-0.5-1l-0.4-1l-0.8-2.1
					L42,351c-0.5-1.4-1.2-2.8-1.6-4.2l-1.4-4.3l-1.4-4.3c-0.3-0.7-0.5-1.4-0.7-2.1l-0.6-2.1c-0.8-2.9-1.6-5.8-2.5-8.6
					c-0.7-2.9-1.4-5.8-2.1-8.8l-0.5-2.2c-0.2-0.7-0.3-1.4-0.5-2.2l-0.8-4.4l-0.8-4.4l-0.4-2.2l-0.3-2.2c-0.4-3-0.8-5.9-1.1-8.9
					c-0.1-0.7-0.1-1.5-0.2-2.2l-0.2-2.2l-0.3-4.5c-0.1-1.5-0.3-3-0.3-4.5l-0.1-4.5l-0.1-4.5l-0.1-2.2c0-0.4,0-0.7,0-1.1v-1.1
					c0.1-3,0.1-6,0.3-8.9l0.1-2.2l0.2-2.2l0.3-4.4l0.3-4.4l0.1-1.1l0.1-1.1l0.3-2.2l1.1-8.8c1.9-11.7,4.5-23.3,8-34.6
					c3.6-11.3,7.9-22.3,13.1-33c5.3-10.7,11.2-20.9,17.8-30.7c6.8-9.7,14.2-19,22.1-27.8l6.2-6.4c1-1.1,2.1-2.1,3.2-3.1l3.2-3.1
					l3.2-3.1l3.4-2.9l3.4-2.9l1.7-1.4c0.6-0.5,1.2-0.9,1.8-1.4l7-5.5c2.4-1.8,4.9-3.4,7.3-5.2l1.8-1.3l0.9-0.6l0.9-0.6l3.8-2.4
					c2.5-1.6,5-3.2,7.6-4.7s5.2-2.9,7.8-4.4c2.7-1.4,5.3-2.7,8-4l2-1c0.6-0.3,1.4-0.6,2-0.9l4.1-1.8l4.1-1.8
					c0.6-0.3,1.4-0.6,2.1-0.8l2.1-0.8c11-4.5,22.6-8,34.2-10.8l4.4-1c1.5-0.3,2.9-0.7,4.4-0.9c3-0.5,5.9-1,8.9-1.6
					c1.5-0.3,3-0.5,4.5-0.6l4.5-0.5l4.5-0.5c1.5-0.1,3-0.2,4.5-0.3c12-1.1,24.2-0.9,36.4-0.1l-3.5-0.3l-3.6-0.1l-7.1-0.2l-1.8-0.1
					l-1.8,0.1l-3.5,0.1l-7.1,0.1l-7.1,0.5l-3.5,0.3l-1.8,0.1l-1.8,0.2l-7,0.8c-1.2,0.1-2.3,0.3-3.5,0.5l-3.5,0.6l-6.9,1.2
					c-1.2,0.2-2.3,0.5-3.4,0.7l-3.4,0.8l-3.4,0.8c-1.2,0.3-2.3,0.5-3.4,0.8l-6.8,1.9l-3.4,1c-1.1,0.3-2.2,0.7-3.3,1.1l-6.7,2.3
					c-0.6,0.2-1.1,0.4-1.7,0.6l-1.6,0.6l-3.2,1.3l-3.2,1.3l-1.6,0.6l-0.8,0.3l-0.8,0.4c-17.3,7.4-33.6,16.8-48.7,27.9
					c-1,0.6-1.9,1.4-2.8,2.1l-2.8,2.1l-2.8,2.1l-1.4,1.1c-0.5,0.4-0.9,0.8-1.4,1.2l-5.3,4.6c-0.9,0.8-1.8,1.5-2.7,2.3l-2.5,2.4
					L98,94.4c-1.6,1.7-3.2,3.4-4.9,5.1l-2.4,2.5c-0.4,0.5-0.8,0.8-1.2,1.3l-1.2,1.3l-4.6,5.3c-1.6,1.8-3,3.6-4.4,5.5l-4.4,5.5
					l-4.1,5.7c-1.4,1.9-2.7,3.8-4,5.8c-2.5,4-5.1,7.8-7.3,11.9l-3.5,6.1l-3.2,6.2c-2.2,4.1-4,8.4-6,12.7c-1,2.1-1.8,4.3-2.7,6.5
					l-2.6,6.5l-2.2,6.6c-0.7,2.2-1.6,4.4-2.1,6.7l-1.9,6.8l-0.5,1.7l-0.3,0.8l-0.2,0.8l-0.8,3.4c-4.3,18.2-6.5,36.8-6.6,55.5
					c0,18.7,2.2,37.3,6.5,55.6c2,9.1,4.9,18.1,8,26.9c0.8,2.2,1.7,4.4,2.5,6.6l1.3,3.2l0.6,1.6l0.7,1.6l2.9,6.4
					c0.5,1,0.9,2.1,1.5,3.2l1.6,3.1l3.2,6.2c1.1,2.1,2.3,4.1,3.5,6.1l1.8,3.1l0.9,1.5l1,1.5l3.8,5.9l1,1.5c0.3,0.5,0.6,1,1,1.4
					l2,2.9l4.1,5.7l4.4,5.5c1.5,1.8,2.9,3.7,4.4,5.5c3.1,3.5,6.1,7.1,9.4,10.5c1.6,1.7,3.2,3.4,4.9,5.1l5.1,4.9l2.5,2.4
					c0.8,0.8,1.8,1.6,2.7,2.3l5.3,4.6c0.5,0.4,0.9,0.8,1.4,1.2l1.4,1.1l2.8,2.2l2.8,2.2c0.9,0.7,1.8,1.5,2.8,2.1
					c15.2,11.2,31.7,20.6,49,28c17.4,7.3,35.7,12.6,54.5,15.7c18.7,3.2,37.9,3.9,57,2.5l7.1-0.5l7.1-0.9c4.7-0.5,9.5-1.5,14.2-2.3
					c2.3-0.4,4.7-1,7-1.5l7-1.6l6.9-1.9c2.3-0.6,4.6-1.2,6.9-2.1l6.8-2.3l1.7-0.6c0.6-0.2,1.1-0.5,1.7-0.6l3.4-1.3
					c2.2-0.9,4.5-1.8,6.7-2.7l6.6-3l3.3-1.5l3.2-1.6l6.4-3.3l0.8-0.4l0.8-0.5l1.6-0.9l3.1-1.8l3.1-1.8c0.5-0.3,1-0.6,1.6-0.9l1.6-1
					c1.4-0.9,2.9-1.9,4.6-3s3.6-2.2,5.4-3.6c1.8-1.3,3.8-2.7,5.8-4.1c0.5-0.3,1-0.7,1.5-1s1-0.8,1.4-1.1c1-0.8,1.9-1.6,2.9-2.3
					c1-0.8,1.9-1.6,2.9-2.3c1-0.8,1.9-1.5,2.9-2.3c1.8-1.6,3.6-3.1,5.3-4.6c0.8-0.7,1.7-1.5,2.5-2.1c0.8-0.7,1.6-1.5,2.3-2.1
					c1.4-1.4,2.8-2.7,4-3.8c19.5-17.9,36-39.1,48.3-62.8c6.2-11.8,11.3-24.1,15.4-36.8c4-12.7,6.9-25.8,8.7-39
					c0.3,3.4,1.3,2.7,2.4,1.4s2.3-3.3,3.1-2.3c0.4,0.5,0.6,1.7,0.6,4.1c0,0.6,0,1.3-0.1,2c-0.1,0.8-0.1,1.6-0.2,2.5
					c-0.2,1.8-0.5,4-0.8,6.6s-1,5.6-1.7,9c-0.4,1.8-0.8,3.6-1.2,5.5c-0.5,1.9-1.1,4-1.7,6.2c-0.3,1.1-0.6,2.2-0.9,3.4
					c-0.1,0.6-0.3,1.2-0.5,1.8c-0.1,0.3-0.2,0.6-0.3,0.9c-0.1,0.3-0.2,0.6-0.3,0.9c-0.8,2.4-1.7,4.9-2.6,7.6c-0.3,0.6-0.5,1.4-0.7,2
					c-0.1,0.3-0.3,0.7-0.3,1c-0.1,0.3-0.3,0.7-0.4,1c-0.6,1.4-1.1,2.8-1.7,4.2c-1.2,2.9-2.3,6-3.8,9c0.5,0.3,1.6,0.7,2.1,0.9
					c1.6-3.1,2.8-6.3,4.2-9.4c0.6-1.6,1.3-3.1,1.9-4.5c0.6-1.5,1.2-3.1,1.8-4.5c0.6-1.5,1.1-3,1.7-4.4c0.5-1.5,1.2-2.9,1.6-4.4
					c1-2.9,1.9-5.7,2.8-8.5c0.3-0.7,0.5-1.4,0.7-2.1c0.2-0.7,0.4-1.4,0.6-2.1c0.4-1.4,0.8-2.7,1.1-4c0.4-1.3,0.8-2.6,1.1-3.9
					c0.2-0.6,0.4-1.3,0.5-1.9c0.2-0.6,0.3-1.3,0.5-1.9c0.6-2.5,1.2-4.9,1.8-7.3c0.3-1.2,0.6-2.3,0.8-3.5c0.2-1.2,0.5-2.3,0.6-3.4
					c0.5-2.2,0.8-4.4,1.3-6.4c0.2-1,0.4-2,0.6-3c0.1-1,0.3-1.9,0.5-2.9c0.6-3.8,1.2-7.1,1.8-10.1c0.8-6,1.6-10.4,2.3-13.1
					c0.6-2.6,1.4-3.5,2-2.5c0.3,0.5,0.6,1.5,0.9,3c0.3,1.6,0.5,3.6,0.7,6.2c0.1,1.3,0.2,2.7,0.3,4.4c0.1,0.8,0.1,1.6,0.1,2.5
					c0,0.8,0,1.8,0,2.7c0,1.9-0.1,3.8-0.1,6c0,1.1-0.1,2.2-0.1,3.3c0,0.6,0,1.2-0.1,1.8s-0.1,1.2-0.1,1.8c-0.2,2.4-0.4,5-0.6,7.7
					c-0.1,1.4-0.2,2.8-0.4,4.2s-0.4,2.9-0.6,4.4s-0.5,3.1-0.7,4.6c-0.1,0.8-0.3,1.6-0.4,2.4c-0.1,0.4-0.1,0.8-0.2,1.2
					s-0.2,0.8-0.3,1.2c-0.6,3.2-1.4,6.7-2.1,10.3c-3.8,16-9.2,32.3-16.7,48.5c-7.4,16.1-16.8,32-28.1,47c-11.3,15-24.5,29.2-39.4,42
					c-7.4,6.4-15.3,12.3-23.5,18.1c-1,0.7-2.1,1.4-3.1,2.1l-3.2,2l-3.2,2c-1,0.6-2.1,1.4-3.2,1.9c-2.1,1.2-4.4,2.5-6.6,3.8l-3.2,1.9
					c-1.1,0.6-2.2,1.2-3.4,1.8c-17.9,9.4-37,16.8-56.9,22c-19.9,5.1-40.5,7.9-61,8.4l-3.8,0.1c-1.3,0-2.6,0.1-3.8,0l-7.7-0.2
					l-3.8-0.1c-1.3,0-2.6-0.2-3.8-0.3l-7.7-0.6c-2.6-0.1-5.1-0.5-7.7-0.8c-2.5-0.3-5.1-0.6-7.7-1c-2.5-0.4-5.1-0.8-7.6-1.3l-3.8-0.6
					c-1.2-0.3-2.5-0.4-3.8-0.7c-20.1-4.2-39.6-10.7-57.9-19c-13.3-6.2-26.2-13.4-38.3-21.7c-12.2-8.2-23.6-17.6-34.2-27.7
					c-10.7-10.1-20.5-21.2-29.3-32.9C44,413,36.2,400.4,29.4,387.4l-2.5-4.9l-0.6-1.2l-0.6-1.9l-1.2-2.5l-2.3-5
					c-0.8-1.7-1.6-3.4-2.2-5.1l-4-10.3L12.5,346c-4.4-14-7.7-28.4-9.8-43l-1.4-11l-0.8-11l-0.2-2.7l-0.1-2.7l-0.1-5.5L0,264.6
					l0.2-5.5l0.2-5.5l0.1-2.7l0.2-2.7l0.9-11l1.5-10.9c0.1-0.9,0.2-1.8,0.4-2.7l0.5-2.7l1-5.4l0.7-3.7c0.1-0.6,0.3-1.2,0.4-1.9
					l0.5-1.8c0.6-2.5,1.2-4.9,1.8-7.4c0.5-2.5,1.3-4.9,2-7.3c0.7-2.5,1.4-4.9,2.1-7.3c0.8-2.4,1.7-4.8,2.5-7.2l1.2-3.6l0.6-1.8
					c0.2-0.6,0.5-1.2,0.7-1.8c1-2.4,1.9-4.7,2.9-7.1l1.4-3.6l1.6-3.5c1.1-2.3,2.1-4.7,3.2-7c0.5-1.2,1.2-2.3,1.8-3.4l1.8-3.4
					l1.8-3.4c0.6-1.2,1.2-2.3,1.8-3.4c1.3-2.2,2.6-4.5,3.9-6.7l1.9-3.4l2.1-3.2c1.4-2.1,2.8-4.4,4.2-6.5c0.7-1.1,1.5-2.1,2.2-3.2
					l2.3-3.2l2.3-3.2l1.2-1.6c0.4-0.5,0.8-1,1.2-1.6c12.7-16.4,27.3-31.6,43.5-44.9c16.3-13.2,34.1-24.5,53-33.6
					c19-9,39-15.8,59.4-20.1c2.5-0.6,5.1-1,7.7-1.5l7.7-1.3c2.6-0.3,5.2-0.6,7.7-1l3.9-0.5l1.9-0.3l1.9-0.1c2.6-0.2,5.2-0.4,7.8-0.5
					l3.9-0.3l3.9-0.1C260,0,262.6,0,265.2,0h1.9l1.9,0.1l3.9,0.1c20.7,0.6,41.2,3.6,60.9,8.9c19.7,5.4,38.5,13.1,56,22.5
					c12.7,6.9,27.3,16,41.6,27.3c14.2,11.2,27.9,24.5,39.5,38.5c11.6,14,21,28.4,27.9,41.2c3.3,6.4,6.3,12.3,8.4,17.6
					c0.5,1.3,1.1,2.5,1.6,3.8c0.5,1.2,1,2.3,1.4,3.4c0.8,2.2,1.5,4.2,2,5.9c6.5,19.7,4.9,21,2.8,18.4l-2.8-8.3
					c-0.5-1.4-0.9-2.8-1.4-4.2l-1.6-4.1c-1.1-2.7-2.1-5.5-3.2-8.2l-3.6-8c-1.2-2.7-2.5-5.3-3.8-7.9l-2-3.9l-1-1.9
					c-0.3-0.6-0.7-1.3-1.1-1.9l-4.4-7.6c-0.4-0.6-0.7-1.3-1.1-1.9l-1.2-1.8l-2.3-3.7l-2.3-3.7l-0.6-0.9l-0.6-0.9l-1.3-1.8l-5.1-7.1
					c-1.8-2.3-3.6-4.6-5.4-6.9c-0.9-1.2-1.8-2.3-2.7-3.4l-2.9-3.3l-2.9-3.3l-1.4-1.7c-0.5-0.6-1-1.1-1.5-1.6l-6-6.4
					c-1.9-2.1-4.2-4.1-6.2-6.2l-3.2-3.1l-1.6-1.5l-1.6-1.4c-34.7-31.3-78-52.6-123.5-61.5c-13.9-2.9-28.1-4.4-42.3-4.8
					c-3.6-0.1-7.1-0.3-10.7-0.1l-5.3,0.1l-2.7,0.1c-0.9,0-1.8,0-2.7,0.1l-10.7,0.7c-1.8,0.1-3.5,0.3-5.3,0.6l-5.3,0.6
					c-14.1,1.9-28.1,4.8-41.8,8.9c-13.6,4.2-27,9.5-39.7,15.8l-4.8,2.4l-2.4,1.2c-0.8,0.4-1.6,0.8-2.3,1.3c-3.1,1.8-6.2,3.5-9.3,5.3
					l-9,5.7l-1.1,0.7l-1.1,0.8l-2.2,1.6l-4.4,3.1C102,62,91.1,71.3,80.9,81.4l-7.3,6.9l-7.1,8.1c-1.2,1.3-2.3,2.7-3.4,4.2l-3.4,3.8
					c-2.3,2.7-4.4,5.7-6.4,8.6c-8.4,11.6-15.8,23.9-22.2,36.8c6.3-12.5,13.7-24.5,21.9-36l3.1-4.3l1.6-2.1l1.7-2.1
					c2.2-2.7,4.4-5.5,6.7-8.2s4.7-5.3,7-7.9l0.9-1l0.9-1l1.8-1.9l3.7-3.8c10-10,20.8-19.2,32.3-27.6c2.9-2,5.8-4.1,8.8-6.1
					c3-1.9,6-3.8,9-5.7c0.8-0.5,1.5-1,2.3-1.4l2.3-1.3l4.7-2.6l2.3-1.3l1.2-0.6l1.2-0.6l4.8-2.4l4.8-2.4c1.6-0.8,3.2-1.5,4.9-2.2
					l4.9-2.1l2.5-1.1l2.5-1c3.3-1.3,6.6-2.6,10-3.8c3.4-1.1,6.8-2.3,10.2-3.4c13.7-4.2,27.7-7.3,42-9.3c14.2-2.1,28.6-2.7,43.1-2.3
					c14.4,0.4,28.8,1.8,43,4.7c2.9,0.5,5.7,1.2,8.4,1.8l4.2,1c1.4,0.3,2.8,0.6,4.2,1c5.5,1.6,11.1,3.1,16.6,5.1l4.1,1.4l2.1,0.7
					c0.7,0.3,1.4,0.5,2,0.8l8.1,3.2l2,0.8l1.9,0.9l4,1.8l4,1.8c0.6,0.3,1.3,0.6,1.9,0.9l1.9,1l7.7,4c1.3,0.6,2.5,1.4,3.8,2.1
					l3.8,2.2l3.8,2.2c0.6,0.3,1.2,0.7,1.8,1.2l1.8,1.2l7.3,4.7c2.3,1.6,4.7,3.4,7,5l3.5,2.5l3.4,2.7c2.3,1.8,4.5,3.6,6.8,5.4
					l6.5,5.7l1.6,1.4l0.8,0.7L443,73l3.1,3l3.1,3c1,1,2.1,2,3.1,3.1l5.9,6.3l1.5,1.6l1.4,1.6l2.8,3.3c3.8,4.3,7.3,8.9,10.8,13.4
					c0.9,1.1,1.7,2.3,2.5,3.5l2.5,3.5l2.5,3.5c0.8,1.2,1.6,2.4,2.3,3.6l4.6,7.3l4.3,7.5c0.7,1.2,1.4,2.5,2.1,3.8l1.9,3.8
					c1.3,2.6,2.6,5.1,3.8,7.7l3.5,7.9l0.8,1.9l0.5,1l0.4,1l1.6,4l1.6,4c0.5,1.4,1,2.7,1.5,4l2.7,8.2c-2.2-2.9-4.4-5.4-3.7,0.2
					c0,0,0.1,0.4,0.4,1.2c0.1,0.4,0.3,0.8,0.5,1.4s0.4,1.2,0.6,1.8c0.8,2.7,1.9,6.5,3.1,10.7c0.5,2.1,1,4.4,1.6,6.6
					c0.5,2.3,1.1,4.5,1.6,6.8c0.8,4.5,1.6,8.8,2.1,12.3c0.5,7,1,12.9,0.8,17.8c0,2.5-0.1,4.7-0.1,6.6c0,1-0.1,1.9-0.2,2.8
					c-0.1,0.8-0.2,1.7-0.3,2.5c-0.7,6.1-1.5,8.7-2.4,8.7c-0.8,0-1.8-2.6-2.8-6.8c-0.3-1-0.5-2.2-0.7-3.4c-0.3-1.2-0.5-2.6-0.8-4
					c-0.6-2.8-1.2-5.9-1.9-9.3c-0.3-1.7-0.7-3.4-1-5.2c-0.4-1.8-0.8-3.6-1.2-5.5c-0.2-0.9-0.4-1.9-0.6-2.9c-0.3-1-0.5-1.9-0.8-2.9
					C506.9,222,506.4,219.9,505.8,217.9z"/>
			</g>
		</g>
	</g>
</g>
</svg>
