<?xml version="1.0" encoding="utf-8"?>
<!-- Generator: Adobe Illustrator 25.2.3, SVG Export Plug-In . SVG Version: 6.00 Build 0)  -->
<svg version="1.1" id="Capa_1" xmlns="http://www.w3.org/2000/svg" xmlns:xlink="http://www.w3.org/1999/xlink" x="0px" y="0px"
	 viewBox="0 0 512 512" style="enable-background:new 0 0 512 512;" xml:space="preserve">
<style type="text/css">
	.st0{fill:#07485E;}
	.st1{fill:#FEA832;}
	.st2{fill:#FF4A4A;}
</style>
<path class="st0" d="M512,402.3c0,16.7-13.5,30.3-30.3,30.3H30.3C13.6,432.5,0,419,0,402.3V109.7C0,93,13.6,79.5,30.3,79.5h451.5
	c16.7,0,30.3,13.6,30.3,30.3L512,402.3L512,402.3z"/>
<g>
	<path class="st1" d="M307.8,360.2c-25.5,0-50.2-9.5-69.6-26.8l-22.4-19.9l23-19.3c10.9-9.2,17.2-22.9,17.2-37.7
		c0-14.7-6.2-28.6-17-38l-21.8-19l21.2-19.6c18.9-17.5,43.6-27.1,69.4-27.1c57.2,0,103.7,46.5,103.7,103.7S365,360.2,307.8,360.2z"
		/>
	<path class="st2" d="M204.2,360.2c-57.2,0-103.7-46.5-103.7-103.7S147,152.8,204.2,152.8c25.9,0,50.5,9.6,69.4,27.1
		c21.6,18.8,34.2,46.8,34.2,76.6c0,30.1-13,58.4-35.7,77.4C255,350.4,230.4,360.2,204.2,360.2z"/>
</g>
</svg>
