<?xml version="1.0" encoding="utf-8"?>
<!-- Generator: Adobe Illustrator 25.2.3, SVG Export Plug-In . SVG Version: 6.00 Build 0)  -->
<svg version="1.1" id="Layer_1" xmlns="http://www.w3.org/2000/svg" xmlns:xlink="http://www.w3.org/1999/xlink" x="0px" y="0px"
	 viewBox="0 0 512 512" style="enable-background:new 0 0 512 512;" xml:space="preserve">
<style type="text/css">
	.st0{fill:#2F3640;}
</style>
<g>
	<path class="st0" d="M256,15.1c-75.3,0-135.5,60.2-135.5,135.5v60.2c-25.6,0-45.2,19.6-45.2,45.2v195.8c0,25.6,19.6,45.2,45.2,45.2
		h271.1c25.6,0,45.2-19.6,45.2-45.2V256c0-25.6-19.6-45.2-45.2-45.2v-60.2C391.5,75.3,331.3,15.1,256,15.1z M406.6,256v195.8
		c0,9-6,15.1-15.1,15.1H120.5c-9,0-15.1-6-15.1-15.1V256c0-9,6-15.1,15.1-15.1h15.1h240.9h15.1C400.6,240.9,406.6,247,406.6,256z
		 M150.6,210.8v-60.2c0-58.7,46.7-105.4,105.4-105.4s105.4,46.7,105.4,105.4v60.2H150.6z"/>
	<path class="st0" d="M256,286.1c-25.6,0-45.2,19.6-45.2,45.2c0,19.6,12,36.1,30.1,42.2v33.1c0,9,6,15.1,15.1,15.1
		c9,0,15.1-6,15.1-15.1v-33.1c18.1-6,30.1-22.6,30.1-42.2C301.2,305.7,281.6,286.1,256,286.1z M256,346.4c-9,0-15.1-6-15.1-15.1
		c0-9,6-15.1,15.1-15.1c9,0,15.1,6,15.1,15.1C271.1,340.3,265,346.4,256,346.4z"/>
</g>
</svg>
