<?xml version="1.0" encoding="utf-8"?>
<!-- Generator: Adobe Illustrator 25.2.3, SVG Export Plug-In . SVG Version: 6.00 Build 0)  -->
<svg version="1.1" id="Layer_1" xmlns="http://www.w3.org/2000/svg" xmlns:xlink="http://www.w3.org/1999/xlink" x="0px" y="0px"
	 viewBox="0 0 726 1110.9" style="enable-background:new 0 0 726 1110.9;" xml:space="preserve">
<style type="text/css">
	.st0{fill:#2CAE6F;}
	.st1{fill:#EDD858;}
	.st2{fill:#512F6F;}
</style>
<path class="st1" d="M20.6,11.8C21.6,7.8,22.9,4,23.8,0L726,0v1102.7c0,0-303.1,66.8-354.7-181.5c-7.9-36.8-21.1-72.9-42.9-103.8
	c-12.9-18.3-28.8-33.9-46.4-47.6c-27.1-21.2-57.1-38.3-83.9-60.1c-11.4-9.4-22.5-19.7-31.7-31.3c-15-18.8-25.5-41-30.1-64.7
	c-7.4-37.1-3.3-75.6-0.9-113.1c1.3-19.6,2.3-39.1,1-58.7c-1.6-30.8-11.2-60.7-28-86.5c-16.6-25.4-39.6-48.6-58.4-72.5
	c-15.4-19.3-28-40.5-36.4-63.7C3.7,192.8,0.2,164,0.3,136C0.7,93.7,9.2,52.4,20.6,11.8z"/>
</svg>
