<?xml version="1.0" encoding="utf-8"?>
<!-- Generator: Adobe Illustrator 25.2.3, SVG Export Plug-In . SVG Version: 6.00 Build 0)  -->
<svg version="1.1" id="Layer_1" xmlns="http://www.w3.org/2000/svg" xmlns:xlink="http://www.w3.org/1999/xlink" x="0px" y="0px"
	 viewBox="0 0 1110.9 725.8" style="enable-background:new 0 0 1110.9 725.8;" xml:space="preserve">
<style type="text/css">
	.st0{fill:#2CAE6F;}
	.st1{fill:#EDD858;}
	.st2{fill:#512F6F;}
</style>
<path class="st0" d="M1099.1,20.3c3.9,1.1,7.8,2.3,11.8,3.2v702.2H8.2c0,0-66.8-303.1,181.5-354.7c36.8-7.9,72.9-21.1,103.8-42.9
	c18.3-12.9,33.9-28.8,47.6-46.4c21.2-27.1,38.3-57.1,60.1-83.9c9.4-11.4,19.7-22.5,31.3-31.7c18.8-15,41-25.5,64.7-30.1
	c37.1-7.4,75.6-3.3,113.1-0.9c19.6,1.3,39.1,2.3,58.7,1c30.8-1.6,60.7-11.2,86.5-28c25.4-16.6,48.6-39.6,72.5-58.4
	c19.3-15.4,40.5-28,63.7-36.4C918.1,3.5,946.9-0.1,974.9,0C1017.2,0.5,1058.5,9,1099.1,20.3z"/>
</svg>
