<?xml version="1.0" encoding="utf-8"?>
<!-- Generator: Adobe Illustrator 25.2.3, SVG Export Plug-In . SVG Version: 6.00 Build 0)  -->
<svg version="1.1" id="Layer_1" xmlns="http://www.w3.org/2000/svg" xmlns:xlink="http://www.w3.org/1999/xlink" x="0px" y="0px"
	 viewBox="0 0 1178 512" style="enable-background:new 0 0 1178 512;" xml:space="preserve">
<style type="text/css">
	.st0{fill:#2F3640;}
</style>
<g>
	<path class="st0" d="M225,15.1c-75.3,0-135.5,60.2-135.5,135.5v60.2c-25.6,0-45.2,19.6-45.2,45.2v195.8c0,25.6,19.6,45.2,45.2,45.2
		h271.1c25.6,0,45.2-19.6,45.2-45.2V256c0-25.6-19.6-45.2-45.2-45.2v-60.2C360.5,75.3,300.3,15.1,225,15.1z M375.6,256v195.8
		c0,9-6,15.1-15.1,15.1h-271c-9,0-15.1-6-15.1-15.1V256c0-9,6-15.1,15.1-15.1h15.1h240.9h15.1C369.6,240.9,375.6,247,375.6,256z
		 M119.6,210.8v-60.2c0-58.7,46.7-105.4,105.4-105.4s105.4,46.7,105.4,105.4v60.2H119.6z"/>
	<path class="st0" d="M225,286.1c-25.6,0-45.2,19.6-45.2,45.2c0,19.6,12,36.1,30.1,42.2v33.1c0,9,6,15.1,15.1,15.1
		c9,0,15.1-6,15.1-15.1v-33.1c18.1-6,30.1-22.6,30.1-42.2C270.2,305.7,250.6,286.1,225,286.1z M225,346.4c-9,0-15.1-6-15.1-15.1
		c0-9,6-15.1,15.1-15.1c9,0,15.1,6,15.1,15.1C240.1,340.3,234,346.4,225,346.4z"/>
</g>
<g>
	<path class="st0" d="M614.5,120.4c-12.1-18.7-28.2-30.1-55.4-30.1c-30.1,0-42.2,11.7-42.2,28.2c0,13.9,7,24.9,36.7,31.9l25.7,5.9
		c58.3,13.2,81.8,38.1,81.8,77c0,49.5-37.4,78.8-104.1,78.8c-43.3,0-81.8-11.4-104.1-49.5l39.2-29c14.7,23.8,35.6,36.3,64.9,36.3
		c32.3,0,47.7-10.3,47.7-30.4c0-14.7-8.4-23.8-38.1-30.8l-25.3-5.9c-57.2-13.2-78.8-42.5-78.8-80.3c0-44,35.6-77.4,96.4-77.4
		c44.4,0,77.4,12.8,96.8,48L614.5,120.4z"/>
	<path class="st0" d="M848,120.4c-12.1-18.7-28.2-30.1-55.4-30.1c-30.1,0-42.2,11.7-42.2,28.2c0,13.9,7,24.9,36.7,31.9l25.7,5.9
		c58.3,13.2,81.8,38.1,81.8,77c0,49.5-37.4,78.8-104.1,78.8c-43.3,0-81.8-11.4-104.1-49.5l39.2-29c14.7,23.8,35.6,36.3,64.9,36.3
		c32.3,0,47.7-10.3,47.7-30.4c0-14.7-8.4-23.8-38.1-30.8l-25.3-5.9c-57.2-13.2-78.8-42.5-78.8-80.3c0-44,35.6-77.4,96.4-77.4
		c44.4,0,77.4,12.8,96.8,48L848,120.4z"/>
	<path class="st0" d="M1138.4,257.1V307H945.2V50.3h60.5v206.8H1138.4z"/>
</g>
<g>
	<path class="st0" d="M522.5,388.3c-5.5-8.5-12.9-13.7-25.3-13.7c-13.7,0-19.2,5.4-19.2,12.9c0,6.4,3.2,11.4,16.7,14.6l11.7,2.7
		c26.6,6,37.3,17.4,37.3,35.1c0,22.6-17.1,36-47.5,36c-19.8,0-37.3-5.2-47.5-22.6l17.9-13.2c6.7,10.9,16.2,16.6,29.6,16.6
		c14.7,0,21.8-4.7,21.8-13.9c0-6.7-3.9-10.9-17.4-14.1L489,426c-26.1-6-36-19.4-36-36.7c0-20.1,16.2-35.3,44-35.3
		c20.3,0,35.3,5.9,44.2,21.9L522.5,388.3z"/>
	<path class="st0" d="M566.8,356.4h89.9V378h-63.1v25.6h54.6v21.8h-54.6v26.6h64.8v21.6h-91.6V356.4z"/>
	<path class="st0" d="M673.6,414.8c0-42.7,19.1-60.8,57.1-60.8c23.4,0,38.7,7.7,46.5,26.4l-21.9,11.4c-5.4-11.7-12.2-15.2-24.8-15.2
		c-18.6,0-29.3,8.4-29.3,38.5c0,29.8,10.7,38.8,29.5,38.8c12.1,0,20.8-4.7,26.1-16.6l21.9,10.9c-8.5,18.2-24.1,27.6-48.9,27.6
		C691.7,475.9,673.6,456.6,673.6,414.8z"/>
	<path class="st0" d="M871.8,356.4h27.3v69.5c0,35.1-19.2,50-51.6,50c-33.5,0-52.1-15.4-52.1-50v-69.5h27.4v71
		c0,17.7,9.2,25.9,24.4,25.9c15.2,0,24.4-8.2,24.4-25.9V356.4z"/>
	<path class="st0" d="M954.3,473.5h-26.9V356.4h57.1c26.4,0,39.7,15.1,39.7,38.5c0,17.2-7.2,29.1-19.8,35l21.1,43.7h-30.1L977.6,435
		h-23.3V473.5z M954.3,379v34.1h25.1c10.9,0,17.4-6,17.4-17.6c0-9.7-5-16.6-16.9-16.6H954.3z"/>
	<path class="st0" d="M1046.9,356.4h89.9V378h-63.1v25.6h54.6v21.8h-54.6v26.6h64.8v21.6h-91.6V356.4z"/>
</g>
</svg>
